<?xml version="1.0" encoding="UTF-8" standalone="no"?><!DOCTYPE svg PUBLIC "-//W3C//DTD SVG 1.1//EN" "http://www.w3.org/Graphics/SVG/1.1/DTD/svg11.dtd"><svg width="100%" height="100%" viewBox="0 0 160 160" version="1.1" xmlns="http://www.w3.org/2000/svg" xmlns:xlink="http://www.w3.org/1999/xlink" xml:space="preserve" xmlns:serif="http://www.serif.com/" style="fill-rule:evenodd;clip-rule:evenodd;stroke-linejoin:round;stroke-miterlimit:1.41421;"><g id="icon-Nocontent-white"><clipPath id="_clip1"><rect x="0" y="0" width="160" height="160"/></clipPath><g clip-path="url(#_clip1)"></g><path d="M23.93,97.458l56.83,61.418l0,-39.147l-56.83,-22.271Z" style="fill:url(#_Linear2);"/><path d="M137.126,97.166l-56.507,61.71l0,-39.147l56.507,-22.563Z" style="fill:url(#_Linear3);"/><path d="M81.135,72.164c-0.479,-0.193 -1.014,-0.193 -1.493,0c-5.644,2.272 -41.721,16.793 -54.659,22c-0.758,0.305 -1.254,1.039 -1.254,1.856c0,0.816 0.496,1.55 1.254,1.855c12.938,5.208 49.015,19.729 54.659,22c0.479,0.193 1.014,0.193 1.493,0c5.644,-2.271 41.721,-16.792 54.659,-22c0.757,-0.305 1.253,-1.039 1.253,-1.855c0,-0.817 -0.496,-1.551 -1.253,-1.856c-12.938,-5.207 -49.015,-19.728 -54.659,-22Z" style="fill:#eceef3;"/><g><path d="M85.355,34.964l5.912,2.596c0.172,0.076 0.311,0.303 0.31,0.507l-0.016,6.666c0,0.205 -0.14,0.309 -0.311,0.234l-18.448,-8.1c-0.172,-0.076 -0.311,-0.303 -0.31,-0.507l0.016,-6.666c0,-0.205 0.14,-0.309 0.311,-0.234l6.355,2.79c0.304,-1.429 1.505,-2.13 2.971,-1.593c1.607,0.587 2.972,2.456 3.21,4.307Z" style="fill:#52a3e1;"/><path d="M62.746,30.036c1.471,-0.9 2.028,-1.273 3.035,-0.831l32.841,14.42c1.007,0.442 1.822,1.775 1.819,2.975l-0.13,54.654c-0.003,1.2 -1.185,1.735 -2.624,2.228l-32.046,-15.275c-1.007,-0.442 -1.823,-1.775 -1.82,-2.975l-1.075,-55.196Z" style="fill:#497dc2;"/><path d="M61.991,31.441c0.003,-1.199 0.823,-1.815 1.83,-1.372l32.841,14.419c1.007,0.443 1.822,1.776 1.819,2.976l-0.13,54.654c-0.003,1.2 -0.823,1.815 -1.83,1.373l-32.84,-14.42c-1.007,-0.442 -1.823,-1.776 -1.82,-2.975l0.13,-54.655Z" style="fill:#5f8ed4;"/><path d="M63.431,34.239c0.002,-1.105 0.757,-1.671 1.684,-1.264l30.241,13.278c0.928,0.407 1.678,1.635 1.676,2.74l-0.12,50.327c-0.003,1.105 -0.758,1.672 -1.685,1.264l-30.241,-13.278c-0.927,-0.407 -1.678,-1.635 -1.675,-2.739l0.12,-50.328Z" style="fill:#fff;"/><path d="M68.76,45.58c0.001,-0.528 0.362,-0.798 0.805,-0.604l21.308,9.356c0.443,0.195 0.802,0.781 0.8,1.309c-0.001,0.528 -0.362,0.799 -0.805,0.604l-21.308,-9.355c-0.443,-0.195 -0.801,-0.782 -0.8,-1.31Z" style="fill:#5f8ed4;"/><path d="M68.76,53.483c0.001,-0.528 0.362,-0.799 0.805,-0.604l21.308,9.356c0.443,0.194 0.802,0.781 0.8,1.309c-0.001,0.528 -0.362,0.799 -0.805,0.604l-21.308,-9.356c-0.443,-0.194 -0.801,-0.781 -0.8,-1.309Z" style="fill:#5f8ed4;"/><path d="M68.76,61.386c0.001,-0.528 0.362,-0.799 0.805,-0.605l21.308,9.356c0.443,0.195 0.802,0.782 0.8,1.31c-0.001,0.528 -0.362,0.798 -0.805,0.604l-21.308,-9.356c-0.443,-0.195 -0.801,-0.781 -0.8,-1.309Z" style="fill:#5f8ed4;"/><path d="M68.76,69.288c0.001,-0.528 0.362,-0.799 0.805,-0.604l21.308,9.356c0.443,0.194 0.802,0.781 0.8,1.309c-0.001,0.528 -0.362,0.799 -0.805,0.604l-21.308,-9.356c-0.443,-0.194 -0.801,-0.781 -0.8,-1.309Z" style="fill:#5f8ed4;"/><path d="M68.76,77.191c0.001,-0.528 0.362,-0.799 0.805,-0.604l9.451,4.149c0.443,0.195 0.801,0.782 0.8,1.31c-0.001,0.528 -0.362,0.798 -0.805,0.604l-9.451,-4.15c-0.443,-0.195 -0.801,-0.781 -0.8,-1.309Z" style="fill:#5f8ed4;"/><path d="M84.397,35.922l5.913,2.596c0.171,0.076 0.31,0.303 0.309,0.507l-0.015,6.666c-0.001,0.205 -0.141,0.309 -0.312,0.234l-18.448,-8.1c-0.172,-0.076 -0.311,-0.303 -0.31,-0.507l0.016,-6.666c0,-0.205 0.14,-0.309 0.311,-0.234l6.355,2.79c0.304,-1.429 1.505,-2.13 2.971,-1.593c1.607,0.587 2.972,2.456 3.21,4.307Zm-3.484,-2.976c0.53,0.146 0.969,0.73 0.979,1.303c0.01,0.573 -0.413,0.92 -0.943,0.774c-0.531,-0.145 -0.969,-0.729 -0.979,-1.302c-0.01,-0.573 0.413,-0.92 0.943,-0.775Z" style="fill:#72b5e9;"/></g><path d="M86.965,88.024l3.793,12.911l-4.051,-1.939l-1.724,-10.421l1.982,-0.551Z" style="fill:#313a56;fill-opacity:0.08;"/><ellipse cx="83.623" cy="109.131" rx="4.903" ry="1.319" style="fill:#97b0d6;fill-opacity:0.4;"/><path d="M55.82,102.654c2.813,0.753 4.888,2.146 4.63,3.109c-0.258,0.962 -2.751,1.132 -5.564,0.379c-2.813,-0.754 -4.887,-2.147 -4.63,-3.109c0.258,-0.963 2.751,-1.133 5.564,-0.379Z" style="fill:#97b0d6;fill-opacity:0.4;"/><g><rect x="81.641" y="108.014" width="0.68" height="0.684" style="fill:#ffc5b5;"/><path d="M86.568,107.854l-0.645,0.213l0.213,0.649l0.646,-0.212l-0.214,-0.65Z" style="fill:#ffc5b5;"/><path d="M88.284,96.062l-0.426,-0.246l-0.31,0.538l0.425,0.245l0.311,-0.537Z" style="fill:#feb2a0;"/><path d="M82.735,109.341c0,-0.194 -0.077,-0.38 -0.214,-0.517c-0.137,-0.137 -0.323,-0.214 -0.517,-0.214c-0.326,0 -0.707,0 -1.023,0c-0.173,0 -0.339,0.069 -0.462,0.191c-0.122,0.123 -0.191,0.289 -0.191,0.462c0,0 0,0.001 0,0.001c0,0.115 0.093,0.208 0.208,0.208c0.484,0 1.674,0 2.069,0c0.034,0 0.067,-0.014 0.092,-0.038c0.024,-0.025 0.038,-0.058 0.038,-0.092c0,0 0,-0.001 0,-0.001Z" style="fill:#447eca;"/><path d="M87.376,108.985c-0.06,-0.184 -0.191,-0.337 -0.365,-0.424c-0.173,-0.087 -0.373,-0.102 -0.557,-0.042c-0.31,0.102 -0.672,0.221 -0.972,0.319c-0.164,0.054 -0.301,0.172 -0.379,0.326c-0.078,0.155 -0.091,0.334 -0.037,0.499c0,0 0,0 0,0c0.036,0.11 0.153,0.169 0.262,0.133c0.46,-0.151 1.59,-0.523 1.966,-0.646c0.032,-0.011 0.06,-0.034 0.075,-0.065c0.016,-0.031 0.018,-0.066 0.008,-0.099c-0.001,0 -0.001,-0.001 -0.001,-0.001Z" style="fill:#447eca;"/><path d="M85.335,97.975l-2.854,4.296l0,6.014l-1.033,0l-0.671,-6.403l2.241,-4.521l2.317,0.614" style="fill:#5f8ed4;"/><path d="M86.899,97.606l-1.009,5.462l1.009,5.197l-1.009,0.197l-1.757,-5.45l0.686,-5.564l2.41,0.158" style="fill:#5f8ed4;"/><rect x="85.026" y="90.266" width="0.95" height="1.128" style="fill:#feb2a0;"/><path d="M84.216,89.395c0,0 -2.302,1.5 -2.048,1.554c0.424,0.09 1.285,-0.089 2.321,0c0.87,0.075 1.52,0.146 2.236,0.29c0.986,0.199 2.491,1.681 2.491,2.706c0,1.025 -1.039,2.493 -1.039,2.493c-0.288,-0.065 -0.44,-0.221 -0.538,-0.415c0,0 0.362,-1.309 0.538,-1.883c0.108,-0.352 -0.461,-0.751 -0.889,-0.764c-0.201,0.94 1.096,4.501 0.198,5.274c-0.898,0.774 -4.912,0.438 -5.584,-0.632c-0.671,-1.07 1.553,-5.787 1.553,-5.787c-1.241,0.252 -3.102,-0.728 -2.958,-1.282c0.144,-0.554 3.719,-2.309 3.719,-2.309l0,0.755Z" style="fill:#447eca;"/><path d="M87.058,96.718l-0.084,0.145c-0.115,0.2 -0.047,0.456 0.154,0.572c0.2,0.116 0.456,0.047 0.572,-0.153l0.242,-0.419c0.116,-0.201 0.047,-0.457 -0.153,-0.573c-0.189,-0.109 -0.428,-0.054 -0.552,0.12l-0.284,0.077c-0.066,0.017 -0.106,0.086 -0.088,0.153c0.018,0.067 0.086,0.106 0.153,0.088l0.04,-0.01Z" style="fill:#ffc5b5;"/><ellipse cx="85.525" cy="88.937" rx="1.747" ry="1.9" style="fill:#ffc5b5;"/><clipPath id="_clip4"><ellipse cx="85.525" cy="88.937" rx="1.747" ry="1.9"/></clipPath><g clip-path="url(#_clip4)"><path d="M84.022,87.292c0,0 0.915,1.395 2.364,1.411c0.42,-0.189 0.464,0.217 0.161,0.822c0,0 -0.937,1.534 -0.161,1.34c0.776,-0.193 1.723,-2.366 1.723,-2.366c0,0 -1.005,-2.453 -2.156,-2.272c-1.15,0.181 -1.479,0.36 -1.568,0.635c-0.088,0.275 -0.363,0.43 -0.363,0.43Z" style="fill:#995835;"/></g></g><path d="M66.882,62.247l4.928,30.492l-9.009,-3.974l4.081,-26.518Z" style="fill:#313a56;fill-opacity:0.08;"/><g><path d="M60.938,71.359l-7.875,29.39c-0.479,1.787 0.584,3.627 2.371,4.106c1.787,0.479 3.627,-0.584 4.106,-2.371l7.875,-29.39l-6.477,-1.735Z" style="fill:#5f8ed4;"/><clipPath id="_clip5"><path d="M60.938,71.359l-7.875,29.39c-0.479,1.787 0.584,3.627 2.371,4.106c1.787,0.479 3.627,-0.584 4.106,-2.371l7.875,-29.39l-6.477,-1.735Z"/></clipPath><g clip-path="url(#_clip5)"><path d="M60.937,71.358l-7.712,28.781c-0.469,1.751 -0.366,3.301 0.23,3.461c0.596,0.16 1.46,-1.132 1.929,-2.882l7.712,-28.781l-2.159,-0.579Z" style="fill:#4783d1;"/><path d="M63.096,71.937l-7.712,28.781c-0.469,1.75 -0.366,3.301 0.23,3.461c0.596,0.159 1.461,-1.132 1.93,-2.882l7.712,-28.782l-2.16,-0.578Z" style="fill:#588ed4;"/><path d="M65.256,72.515l-7.712,28.782c-0.469,1.75 -0.366,3.301 0.23,3.46c0.596,0.16 1.46,-1.131 1.929,-2.882l7.712,-28.781l-2.159,-0.579Z" style="fill:#6d9ddd;"/><path d="M51.604,99.645l9.983,2.675l-1.22,4.553l-9.983,-2.675l1.22,-4.553Z" style="fill:#427fcf;"/><path d="M51.013,98.5l11.037,2.958l-0.309,1.153l-11.037,-2.958l0.309,-1.153Z" style="fill:#fff;"/></g><path d="M66.882,62.247l-5.915,9.119l6.477,1.736l-0.562,-10.855Z" style="fill:#fff;"/><clipPath id="_clip6"><path d="M66.882,62.247l-5.915,9.119l6.477,1.736l-0.562,-10.855Z"/></clipPath><g clip-path="url(#_clip6)"><path d="M66.882,62.247l-3.89,1.563l6.477,1.736l-2.587,-3.299Z" style="fill:#5f8ed4;"/></g></g></g><defs><linearGradient id="_Linear2" x1="0" y1="0" x2="1" y2="0" gradientUnits="userSpaceOnUse" gradientTransform="matrix(-63.7434,-49.5065,49.5065,-63.7434,91.0104,149.547)"><stop offset="0" style="stop-color:#eceef3;stop-opacity:0.5"/><stop offset="1" style="stop-color:#eceef3;stop-opacity:0.5"/></linearGradient><linearGradient id="_Linear3" x1="0" y1="0" x2="1" y2="0" gradientUnits="userSpaceOnUse" gradientTransform="matrix(63.7434,-49.5065,-49.5065,-63.7434,70.3683,149.547)"><stop offset="0" style="stop-color:#eceef3;stop-opacity:1"/><stop offset="1" style="stop-color:#d4d8e1;stop-opacity:1"/></linearGradient></defs></svg>