<?xml version="1.0" encoding="UTF-8" standalone="no"?><!DOCTYPE svg PUBLIC "-//W3C//DTD SVG 1.1//EN" "http://www.w3.org/Graphics/SVG/1.1/DTD/svg11.dtd"><svg width="100%" height="100%" viewBox="0 0 32 32" version="1.1" xmlns="http://www.w3.org/2000/svg" xmlns:xlink="http://www.w3.org/1999/xlink" xml:space="preserve" xmlns:serif="http://www.serif.com/" style="fill-rule:evenodd;clip-rule:evenodd;stroke-linecap:round;stroke-linejoin:round;stroke-miterlimit:1.5;"><g id="icon-Twitter"><circle cx="16" cy="16" r="15" style="fill:#313a56;stroke:#5f8ed4;stroke-width:0.3px;"/><path d="M22.512,11.445c0,0 1.395,-1.313 1.392,-1.733c0,0 -1.492,0.796 -2.062,0.726c0,0 -5.161,-3.547 -6.03,2.921c0,0 -2.918,1.095 -7.045,-3.264c0,0 -1.513,2.51 0.949,4.352c0,0 -0.722,0.311 -1.379,-0.239c0,0 -0.042,2.673 2.544,3.174c0,0 0.082,0.211 -1.165,0.353c0,0 -0.091,1.633 2.815,2.188c0,0 -1.407,1.917 -4.75,1.53c0,0 12.54,4.695 14.359,-4.655c0,0 0.24,-0.985 0.545,-4.082c0,0 1.517,-1.005 1.652,-1.66c0,0 -1.148,0.365 -1.825,0.389Z" style="fill:#5983c1;"/></g></svg>