<?xml version="1.0" encoding="UTF-8" standalone="no"?><!DOCTYPE svg PUBLIC "-//W3C//DTD SVG 1.1//EN" "http://www.w3.org/Graphics/SVG/1.1/DTD/svg11.dtd"><svg width="100%" height="100%" viewBox="0 0 32 32" version="1.1" xmlns="http://www.w3.org/2000/svg" xmlns:xlink="http://www.w3.org/1999/xlink" xml:space="preserve" xmlns:serif="http://www.serif.com/" style="fill-rule:evenodd;clip-rule:evenodd;stroke-linecap:round;stroke-linejoin:round;stroke-miterlimit:1.5;"><g id="icon-Telegram-en"><circle cx="16" cy="16" r="15" style="fill:#313a56;"/><clipPath id="_clip1"><circle cx="16" cy="16" r="15"/></clipPath><g clip-path="url(#_clip1)"><rect x="0.589" y="23.864" width="30.521" height="10.711" style="fill:#5983c1;"/><text x="11.369px" y="29.989px" style="font-family:'HelveticaNeue-Medium', 'Helvetica Neue', sans-serif;font-weight:500;font-size:7.545px;fill:#313a56;">E<tspan x="15.821px " y="29.989px ">N</tspan></text></g><circle cx="16" cy="16" r="15" style="fill:none;stroke:#5f8ed4;stroke-width:0.3px;"/><path d="M11.421,14.503l-5.301,-1.29c0,0 -0.82,-0.512 0.85,-1.101l15.3,-5.714c0,0 1.14,-0.467 0.865,1.003l-2.577,11.648c0,0 -0.397,1.973 -1.712,0.68l-3.424,-2.51l-2.321,1.83c0,0 -0.604,0.495 -0.517,0l0.517,-3.64l7.021,-6.417c0,0 0.457,-0.542 -0.553,0.062l-8.148,5.449Z" style="fill:#5983c1;"/></g></svg>