<?xml version="1.0" encoding="UTF-8" standalone="no"?><!DOCTYPE svg PUBLIC "-//W3C//DTD SVG 1.1//EN" "http://www.w3.org/Graphics/SVG/1.1/DTD/svg11.dtd"><svg width="100%" height="100%" viewBox="0 0 15 15" version="1.1" xmlns="http://www.w3.org/2000/svg" xmlns:xlink="http://www.w3.org/1999/xlink" xml:space="preserve" xmlns:serif="http://www.serif.com/" style="fill-rule:evenodd;clip-rule:evenodd;stroke-linejoin:round;stroke-miterlimit:1.41421;"><g id="ICON-WIFI"><path id="ICON-WIFI1" serif:id="ICON-WIFI" d="M6.654,12.557c0,0.464 0.382,0.846 0.846,0.846c0.464,0 0.846,-0.382 0.846,-0.846c0,-0.464 -0.382,-0.846 -0.846,-0.846c-0.464,0 -0.846,0.382 -0.846,0.846c0,0 0,0 0,0Zm2.573,-1.487c-0.154,0 -0.307,-0.059 -0.425,-0.176c-0.348,-0.348 -0.81,-0.54 -1.302,-0.54c-0.492,0 -0.954,0.192 -1.302,0.54c-0.235,0.234 -0.615,0.234 -0.85,0c-0.234,-0.235 -0.234,-0.615 0,-0.85c0.575,-0.575 1.34,-0.892 2.152,-0.892c0.813,0 1.577,0.317 2.152,0.892c0.234,0.235 0.234,0.615 0,0.85c-0.117,0.117 -0.271,0.176 -0.425,0.176Zm2.478,-1.818c-0.154,0 -0.307,-0.058 -0.425,-0.176c-2.084,-2.084 -5.476,-2.084 -7.56,0c-0.235,0.235 -0.615,0.235 -0.85,0c-0.234,-0.234 -0.234,-0.615 0,-0.849c0.625,-0.626 1.354,-1.11 2.167,-1.44c0.784,-0.318 1.613,-0.479 2.463,-0.479c0.85,0 1.679,0.161 2.463,0.479c0.813,0.33 1.542,0.814 2.167,1.44c0.234,0.234 0.234,0.615 0,0.849c-0.118,0.118 -0.271,0.176 -0.425,0.176Zm-10.362,-2.095c-0.154,0 -0.308,-0.059 -0.425,-0.176c-0.235,-0.235 -0.235,-0.615 0,-0.85c0.889,-0.889 1.925,-1.577 3.08,-2.046c1.115,-0.453 2.294,-0.682 3.502,-0.682c1.208,0 2.387,0.229 3.502,0.682c1.155,0.469 2.191,1.157 3.08,2.046c0.235,0.235 0.235,0.615 0,0.85c-0.234,0.234 -0.615,0.234 -0.849,0c-1.533,-1.533 -3.569,-2.377 -5.733,-2.377c-2.164,0 -4.2,0.844 -5.733,2.377c-0.117,0.117 -0.271,0.176 -0.424,0.176Z" style="fill:#2b93f6;"/><rect x="0" y="0" width="15" height="15" style="fill:none;"/></g></svg>