<?xml version="1.0" encoding="UTF-8" standalone="no"?><!DOCTYPE svg PUBLIC "-//W3C//DTD SVG 1.1//EN" "http://www.w3.org/Graphics/SVG/1.1/DTD/svg11.dtd"><svg width="100%" height="100%" viewBox="0 0 34 34" version="1.1" xmlns="http://www.w3.org/2000/svg" xmlns:xlink="http://www.w3.org/1999/xlink" xml:space="preserve" xmlns:serif="http://www.serif.com/" style="fill-rule:evenodd;clip-rule:evenodd;stroke-linejoin:round;stroke-miterlimit:1.41421;"><g id="H5-icon-horn"><path id="H5-icon-horn1" serif:id="H5-icon-horn" d="M9.088,10.749l7.642,-6.267c0.5,-0.41 1.193,-0.496 1.778,-0.219c0.585,0.277 0.958,0.866 0.958,1.513c0,5.68 0,16.768 0,22.448c0,0.647 -0.373,1.236 -0.958,1.513c-0.585,0.277 -1.278,0.191 -1.778,-0.219l-7.642,-6.267l-3.439,0c-1.213,0 -2.198,-0.986 -2.198,-2.199l0,-8.104c0,-1.213 0.985,-2.198 2.198,-2.199l3.439,0Zm19.034,17.968l-5.859,-5.859l1.172,-1.172l5.859,5.859l-1.172,1.172Zm2.427,-10.888l-8.286,0l0,-1.658l8.286,0l0,1.658Zm-2.427,-12.546l-5.859,5.859l1.172,1.172l5.859,-5.859l-1.172,-1.172Z" style="fill:#cdd5df;"/><rect x="0" y="0" width="34" height="34" style="fill:none;"/></g></svg>