<?xml version="1.0" encoding="UTF-8" standalone="no"?><!DOCTYPE svg PUBLIC "-//W3C//DTD SVG 1.1//EN" "http://www.w3.org/Graphics/SVG/1.1/DTD/svg11.dtd"><svg width="100%" height="100%" viewBox="0 0 32 32" version="1.1" xmlns="http://www.w3.org/2000/svg" xmlns:xlink="http://www.w3.org/1999/xlink" xml:space="preserve" xmlns:serif="http://www.serif.com/" style="fill-rule:evenodd;clip-rule:evenodd;stroke-linecap:round;stroke-linejoin:round;stroke-miterlimit:1.5;"><g id="icon-Facebook"><circle id="z" cx="16" cy="16" r="15" style="fill:#313a56;"/><clipPath id="_clip1"><circle id="z1" serif:id="z" cx="16" cy="16" r="15"/></clipPath><g clip-path="url(#_clip1)"><path d="M13.681,16.549l0,9.173l3.89,0l0,-9.173l2.685,0l0,-2.856l-2.685,0l0,-2.002c0,-0.546 0.114,-0.934 0.343,-1.165c0.228,-0.23 0.607,-0.346 1.137,-0.346c0.493,0 0.968,0.026 1.424,0.077l0,-2.714c-0.328,-0.017 -0.666,-0.038 -1.013,-0.064c-0.347,-0.025 -0.694,-0.038 -1.041,-0.038c-1.589,0 -2.777,0.375 -3.562,1.126c-0.785,0.752 -1.178,1.716 -1.178,2.894l0,2.232l-2.329,0l0,2.856l2.329,0Z" style="fill:#5983c1;fill-rule:nonzero;"/></g><circle id="z2" serif:id="z" cx="16" cy="16" r="15" style="fill:none;stroke:#5f8ed4;stroke-width:0.3px;"/></g></svg>