<?xml version="1.0" encoding="UTF-8" standalone="no"?><!DOCTYPE svg PUBLIC "-//W3C//DTD SVG 1.1//EN" "http://www.w3.org/Graphics/SVG/1.1/DTD/svg11.dtd"><svg width="100%" height="100%" viewBox="0 0 5 5" version="1.1" xmlns="http://www.w3.org/2000/svg" xmlns:xlink="http://www.w3.org/1999/xlink" xml:space="preserve" xmlns:serif="http://www.serif.com/" style="fill-rule:evenodd;clip-rule:evenodd;stroke-linejoin:round;stroke-miterlimit:1.41421;"><path id="icon-close3" d="M2.5,2.136l2.061,-2.061c0.1,-0.1 0.263,-0.1 0.364,0c0.1,0.101 0.1,0.264 0,0.364l-2.061,2.061l2.061,2.061c0.1,0.1 0.1,0.263 0,0.364c-0.101,0.1 -0.264,0.1 -0.364,0l-2.061,-2.061l-2.061,2.061c-0.1,0.1 -0.263,0.1 -0.364,0c-0.1,-0.101 -0.1,-0.264 0,-0.364l2.061,-2.061l-2.061,-2.061c-0.1,-0.1 -0.1,-0.263 0,-0.364c0.101,-0.1 0.264,-0.1 0.364,0l2.061,2.061Z" style="fill:#97b0d6;"/></svg>