<?xml version="1.0" encoding="UTF-8" standalone="no"?><!DOCTYPE svg PUBLIC "-//W3C//DTD SVG 1.1//EN" "http://www.w3.org/Graphics/SVG/1.1/DTD/svg11.dtd"><svg width="100%" height="100%" viewBox="0 0 16 16" version="1.1" xmlns="http://www.w3.org/2000/svg" xmlns:xlink="http://www.w3.org/1999/xlink" xml:space="preserve" xmlns:serif="http://www.serif.com/" style="fill-rule:evenodd;clip-rule:evenodd;stroke-linejoin:round;stroke-miterlimit:1.41421;"><g id="icon-QR_sel"><path d="M5.543,0.133l-3.692,0c-1.018,0 -1.847,0.827 -1.847,1.847l0,3.692c0,1.018 0.829,1.847 1.847,1.847l3.692,0c1.018,0 1.846,-0.827 1.846,-1.847l0,-3.692c0,-1.02 -0.828,-1.847 -1.846,-1.847Zm1.108,5.537c0,0.61 -0.496,1.108 -1.108,1.108l-3.692,0c-0.611,0 -1.109,-0.496 -1.109,-1.108l0,-3.69c0,-0.61 0.496,-1.107 1.109,-1.107l3.692,0c0.61,0 1.108,0.497 1.108,1.107l0,3.69Z" style="fill:#2b93f6;fill-rule:nonzero;"/><path d="M3.698,3.087c-0.406,0 -0.739,0.332 -0.739,0.738c0,0.406 0.333,0.738 0.739,0.738c0.405,0 0.738,-0.332 0.738,-0.738c0,-0.406 -0.333,-0.738 -0.738,-0.738Z" style="fill:#2b93f6;fill-rule:nonzero;"/><path d="M14.157,0.133l-3.692,0c-1.018,0 -1.847,0.827 -1.847,1.847l0,3.692c0,1.018 0.829,1.847 1.847,1.847l3.692,0c1.018,0 1.847,-0.827 1.847,-1.847l0,-3.692c-0.002,-1.02 -0.829,-1.847 -1.847,-1.847Zm1.106,5.537c0,0.61 -0.496,1.106 -1.108,1.106l-3.69,0c-0.61,0 -1.109,-0.496 -1.109,-1.106l0,-3.69c0,-0.61 0.497,-1.107 1.109,-1.107l3.692,0c0.61,0 1.108,0.497 1.108,1.107l0,3.69l-0.002,0Z" style="fill:#2b93f6;fill-rule:nonzero;"/><path d="M12.31,3.087c-0.406,0 -0.738,0.332 -0.738,0.738c0,0.406 0.332,0.738 0.738,0.738c0.406,0 0.738,-0.332 0.738,-0.738c0,-0.406 -0.33,-0.738 -0.738,-0.738Z" style="fill:#2b93f6;fill-rule:nonzero;"/><path d="M5.543,8.501l-3.692,0c-1.018,0 -1.847,0.827 -1.847,1.847l0,3.692c0,1.018 0.829,1.847 1.847,1.847l3.692,0c1.018,0 1.846,-0.827 1.846,-1.847l0,-3.692c0,-1.02 -0.828,-1.847 -1.846,-1.847Zm1.108,5.537c0,0.61 -0.496,1.107 -1.108,1.107l-3.692,0c-0.611,0 -1.109,-0.497 -1.109,-1.107l0,-3.69c0,-0.61 0.496,-1.108 1.109,-1.108l3.692,0c0.61,0 1.108,0.496 1.108,1.108l0,3.69Z" style="fill:#2b93f6;fill-rule:nonzero;"/><path d="M3.698,11.455c-0.406,0 -0.739,0.333 -0.739,0.738c0,0.406 0.333,0.738 0.739,0.738c0.405,0 0.738,-0.332 0.738,-0.738c0,-0.405 -0.333,-0.738 -0.738,-0.738Z" style="fill:#2b93f6;fill-rule:nonzero;"/><path d="M15.338,8.747c-0.23,0 -0.417,0.168 -0.417,0.376l0,2.383l-2.245,0l-0.004,-1.664l0,-0.214c0,-0.414 -0.376,-0.753 -0.835,-0.753l-2.136,0c-0.459,0 -0.835,0.339 -0.835,0.753l0,5.637c0,0.206 0.187,0.376 0.418,0.376c0.23,0 0.417,-0.168 0.417,-0.376l0,-2.652l0,-2.985l2.14,0l0,1.878c0,0.413 0.376,0.752 0.835,0.752l2.245,0c0.459,0 0.835,-0.339 0.835,-0.752l0,-0.912l0,-1.469c0,-0.21 -0.187,-0.378 -0.418,-0.378Z" style="fill:#2b93f6;fill-rule:nonzero;"/><path d="M14.033,14.654c0,0.405 0.333,0.739 0.738,0.739c0.405,0 0.739,-0.334 0.739,-0.739c0,-0.405 -0.334,-0.738 -0.739,-0.738c-0.405,0 -0.738,0.333 -0.738,0.738Z" style="fill:#2b93f6;fill-rule:nonzero;"/><path d="M11.079,14.654c0,0.405 0.334,0.739 0.739,0.739c0.405,0 0.738,-0.334 0.738,-0.739c0,-0.405 -0.333,-0.738 -0.738,-0.738c-0.405,0 -0.739,0.333 -0.739,0.738Z" style="fill:#2b93f6;fill-rule:nonzero;"/></g></svg>