<?xml version="1.0" encoding="UTF-8" standalone="no"?><!DOCTYPE svg PUBLIC "-//W3C//DTD SVG 1.1//EN" "http://www.w3.org/Graphics/SVG/1.1/DTD/svg11.dtd"><svg width="100%" height="100%" viewBox="0 0 16 16" version="1.1" xmlns="http://www.w3.org/2000/svg" xmlns:xlink="http://www.w3.org/1999/xlink" xml:space="preserve" xmlns:serif="http://www.serif.com/" style="fill-rule:evenodd;clip-rule:evenodd;stroke-linejoin:round;stroke-miterlimit:1.41421;"><path id="icon-c_sel" d="M4,15.2l9.6,0c0.916,0 1.6,-0.718 1.6,-1.6l0,-9.6c0,-0.439 -0.361,-0.8 -0.8,-0.8c-0.219,0 -0.4,-0.181 -0.4,-0.4c0,-0.219 0.181,-0.4 0.4,-0.4c0.878,0 1.6,0.722 1.6,1.6c0,0 0,9.6 0,9.6c0,1.462 -0.997,2.4 -2.4,2.4l-9.6,0c-0.878,0 -1.6,-0.722 -1.6,-1.6c0,-0.001 0,-0.003 0,-0.004c0,-0.219 0.181,-0.4 0.4,-0.4c0.218,0 0.398,0.178 0.4,0.396c0,0.45 0.358,0.808 0.8,0.808Zm-2.489,-15.2l10.577,0c0.835,0 1.512,0.677 1.512,1.511l0,10.577c0,0 0,0.001 0,0.001c0,0.829 -0.682,1.511 -1.511,1.511c0,0 0,0 0,0l-10.577,0c0,0 -0.001,0 -0.001,0c-0.829,0 -1.511,-0.682 -1.511,-1.511c0,0 0,0 0,0l0,-10.577c0,-0.835 0.677,-1.512 1.511,-1.512Zm0.039,0.8c-0.411,0 -0.75,0.339 -0.75,0.75l0,10.5c0,0.414 0.336,0.75 0.75,0.75l10.5,0c0.414,0 0.75,-0.336 0.75,-0.75l0,-10.5c0,0 0,0 0,0c0,-0.412 -0.338,-0.75 -0.75,-0.75c0,0 0,0 0,0l-10.5,0Zm4.85,5.6l0,-2.8c0,-0.219 0.181,-0.4 0.4,-0.4c0.219,0 0.4,0.181 0.4,0.4l0,2.8l2.8,0c0.219,0 0.4,0.181 0.4,0.4c0,0.219 -0.181,0.4 -0.4,0.4l-2.8,0l0,2.8c0,0.219 -0.181,0.4 -0.4,0.4c-0.219,0 -0.4,-0.181 -0.4,-0.4l0,-2.8l-2.8,0c-0.219,0 -0.4,-0.181 -0.4,-0.4c0,-0.219 0.181,-0.4 0.4,-0.4l2.8,0Z" style="fill:#2b93f6;fill-rule:nonzero;"/></svg>