<?xml version="1.0" encoding="UTF-8" standalone="no"?><!DOCTYPE svg PUBLIC "-//W3C//DTD SVG 1.1//EN" "http://www.w3.org/Graphics/SVG/1.1/DTD/svg11.dtd"><svg width="100%" height="100%" viewBox="0 0 70 70" version="1.1" xmlns="http://www.w3.org/2000/svg" xmlns:xlink="http://www.w3.org/1999/xlink" xml:space="preserve" xmlns:serif="http://www.serif.com/" style="fill-rule:evenodd;clip-rule:evenodd;stroke-linejoin:round;stroke-miterlimit:1.41421;"><g id="icon-1-3"><rect id="bound" x="0" y="0" width="70" height="70" style="fill:#fff;fill-opacity:0;"/><g><path d="M35,46.7l10.4,10.4l-20.8,0l10.4,-10.4Z" style="fill:#f0e2cc;fill-rule:nonzero;"/><rect x="9" y="12.9" width="52" height="33.8" style="fill:#dab07f;fill-rule:nonzero;"/><path d="M9,44.1l52,-31.2l-52,0l0,31.2Z" style="fill:#f0e2cc;fill-rule:nonzero;"/><rect x="35" y="33.7" width="18.2" height="5.2" style="fill:#f0e2cc;fill-rule:nonzero;"/><path d="M16.8,25.9c0,0 0,0 0,0c0,2.853 2.347,5.2 5.2,5.2c2.853,0 5.2,-2.347 5.2,-5.2l0,0c0,-2.853 -2.347,-5.2 -5.2,-5.2c-2.853,0 -5.2,2.347 -5.2,5.2c0,0 0,0 0,0Z" style="fill:#dab07f;fill-rule:nonzero;"/></g></g></svg>