<?xml version="1.0" encoding="UTF-8" standalone="no"?><!DOCTYPE svg PUBLIC "-//W3C//DTD SVG 1.1//EN" "http://www.w3.org/Graphics/SVG/1.1/DTD/svg11.dtd"><svg width="100%" height="100%" viewBox="0 0 62 62" version="1.1" xmlns="http://www.w3.org/2000/svg" xmlns:xlink="http://www.w3.org/1999/xlink" xml:space="preserve" xmlns:serif="http://www.serif.com/" style="fill-rule:evenodd;clip-rule:evenodd;stroke-linejoin:round;stroke-miterlimit:1.41421;"><g id="icon-2-1"><g><g id="icon"><rect id="bound" x="0" y="0" width="62" height="62" style="fill:#ebebeb;fill-opacity:0;"/><path d="M41.56,48.349l9.957,-9.957l4.224,4.224l-14.181,14.181l-8.448,-8.448l4.224,-4.224l4.224,4.224Zm-11.163,-0.905l0,6.034l-24.138,0l0,-12.069l0.302,0l6.034,-6.034l26.551,0l6.035,6.034l-30.172,0l-2.715,2.716l0,3.319l18.103,0Zm9.051,-28.664c0,7.543 -6.034,13.578 -13.577,13.578c-7.543,0 -13.577,-6.035 -13.577,-13.578c0,-7.542 6.034,-13.577 13.577,-13.577c7.543,0 13.577,6.035 13.577,13.577Zm-6.034,0c0,-4.224 -3.319,-7.542 -7.543,-7.542c-4.224,0 -7.543,3.318 -7.543,7.542c0,4.224 3.319,7.543 7.543,7.543c4.224,0 7.543,-3.319 7.543,-7.543Z" style="fill:url(#_Linear1);fill-rule:nonzero;"/></g></g></g><defs><linearGradient id="_Linear1" x1="0" y1="0" x2="1" y2="0" gradientUnits="userSpaceOnUse" gradientTransform="matrix(35.6973,40.5651,-40.5651,35.6973,15.9909,8.44838)"><stop offset="0" style="stop-color:#e5c39c;stop-opacity:1"/><stop offset="1" style="stop-color:#d5a771;stop-opacity:1"/></linearGradient></defs></svg>