<?xml version="1.0" encoding="UTF-8" standalone="no"?><!DOCTYPE svg PUBLIC "-//W3C//DTD SVG 1.1//EN" "http://www.w3.org/Graphics/SVG/1.1/DTD/svg11.dtd"><svg width="100%" height="100%" viewBox="0 0 70 70" version="1.1" xmlns="http://www.w3.org/2000/svg" xmlns:xlink="http://www.w3.org/1999/xlink" xml:space="preserve" xmlns:serif="http://www.serif.com/" style="fill-rule:evenodd;clip-rule:evenodd;stroke-linejoin:round;stroke-miterlimit:1.41421;"><g id="icon-1-5"><rect id="bound" x="0" y="0" width="70" height="70" style="fill:#fff;fill-opacity:0;"/><g><path d="M22.042,36.42l11.591,11.592l-13.524,13.524l-2.452,-9.139l-9.14,-2.454l13.525,-13.523Zm25.916,0l-11.591,11.592l13.524,13.524l2.452,-9.139l9.14,-2.454l-13.525,-13.523Z" style="fill:#f0e2cc;fill-rule:nonzero;"/><path d="M14.245,28.956c0,11.241 9.251,20.491 20.492,20.491c11.241,0 20.492,-9.25 20.492,-20.491c0,-11.242 -9.251,-20.492 -20.492,-20.492c-11.241,0 -20.492,9.25 -20.492,20.492Z" style="fill:#dab07f;fill-rule:nonzero;"/><path d="M25.174,28.956c0,5.246 4.317,9.562 9.563,9.562c5.246,0 9.563,-4.316 9.563,-9.562c0,-5.246 -4.317,-9.563 -9.563,-9.563c-5.246,0 -9.563,4.317 -9.563,9.563Z" style="fill:#f0e2cc;fill-rule:nonzero;"/></g></g></svg>