<?xml version="1.0" encoding="UTF-8" standalone="no"?><!DOCTYPE svg PUBLIC "-//W3C//DTD SVG 1.1//EN" "http://www.w3.org/Graphics/SVG/1.1/DTD/svg11.dtd"><svg width="100%" height="100%" viewBox="0 0 70 70" version="1.1" xmlns="http://www.w3.org/2000/svg" xmlns:xlink="http://www.w3.org/1999/xlink" xml:space="preserve" xmlns:serif="http://www.serif.com/" style="fill-rule:evenodd;clip-rule:evenodd;stroke-linejoin:round;stroke-miterlimit:1.41421;"><g id="icon-1-1"><rect id="bound" x="0" y="0" width="70" height="70" style="fill:#fff;fill-opacity:0;"/><g><rect x="14.435" y="13.75" width="41.129" height="27.419" style="fill:#f0e2cc;fill-rule:nonzero;"/><rect x="7.581" y="20.605" width="54.839" height="35.645" style="fill:#dab07f;fill-rule:nonzero;"/><path d="M24.032,27.46l6.452,0l4.516,9.557l4.638,-9.557l6.33,0l-7.127,10.851l4.792,0l0,2.52l-5.871,0l0,1.761l5.871,0l0,2.522l-5.871,0l0,4.281l-5.463,0l0,-4.281l-5.931,0l0,-2.522l5.931,0l0,-1.761l-5.931,0l0,-2.404l4.837,0l-7.173,-10.967Z" style="fill:#f0e2cc;fill-rule:nonzero;"/></g></g></svg>