<?xml version="1.0" encoding="UTF-8" standalone="no"?><!DOCTYPE svg PUBLIC "-//W3C//DTD SVG 1.1//EN" "http://www.w3.org/Graphics/SVG/1.1/DTD/svg11.dtd"><svg width="100%" height="100%" viewBox="0 0 70 70" version="1.1" xmlns="http://www.w3.org/2000/svg" xmlns:xlink="http://www.w3.org/1999/xlink" xml:space="preserve" xmlns:serif="http://www.serif.com/" style="fill-rule:evenodd;clip-rule:evenodd;stroke-linejoin:round;stroke-miterlimit:1.41421;"><g id="icon-1-4"><g id="icon"><rect id="bound" x="0" y="0" width="70" height="70" style="fill:#fff;fill-opacity:0;"/><g><path d="M63.56,32.144l-34.272,0l0,22.848l20.663,0l8.568,5.712l0,-5.712l5.041,0l0,-22.848Z" style="fill:#f0e2cc;fill-rule:nonzero;"/><path d="M6.44,9.296l47.124,0l0,31.416l-28.56,0l-11.424,7.14l0,-7.14l-7.14,0l0,-31.416Z" style="fill:#dab07f;fill-rule:nonzero;"/><path d="M13.58,25.718c0,0 0,0 0,0c0,1.958 1.612,3.57 3.57,3.57c1.958,0 3.57,-1.612 3.57,-3.57l0,0c0,-1.958 -1.612,-3.57 -3.57,-3.57c-1.958,0 -3.57,1.612 -3.57,3.57c0,0 0,0 0,0Z" style="fill:#f0e2cc;fill-rule:nonzero;"/><path d="M39.284,25.718c0,0 0,0 0,0c0,1.958 1.612,3.57 3.57,3.57c1.958,0 3.57,-1.612 3.57,-3.57l0,0c0,-1.958 -1.612,-3.57 -3.57,-3.57c-1.958,0 -3.57,1.612 -3.57,3.57c0,0 0,0 0,0Z" style="fill:#f0e2cc;fill-rule:nonzero;"/><path d="M26.432,25.718c0,0 0,0 0,0c0,1.958 1.612,3.57 3.57,3.57c1.958,0 3.57,-1.612 3.57,-3.57l0,0c0,-1.958 -1.612,-3.57 -3.57,-3.57c-1.958,0 -3.57,1.612 -3.57,3.57c0,0 0,0 0,0Z" style="fill:#f0e2cc;fill-rule:nonzero;"/></g></g></g></svg>