<?xml version="1.0" encoding="UTF-8" standalone="no"?>
<!DOCTYPE svg PUBLIC "-//W3C//DTD SVG 1.1//EN" "http://www.w3.org/Graphics/SVG/1.1/DTD/svg11.dtd">
<svg width="100%" height="100%" viewBox="0 0 24 24" version="1.1" xmlns="http://www.w3.org/2000/svg" xmlns:xlink="http://www.w3.org/1999/xlink" xml:space="preserve" xmlns:serif="http://www.serif.com/" style="fill-rule:evenodd;clip-rule:evenodd;stroke-linejoin:round;stroke-miterlimit:1.41421;">
    <g transform="matrix(1,0,0,1,-505,-334)">
        <g transform="matrix(1,0,0,1.30178,0,1.56509e-12)">
            <g id="icon-Return_nor" transform="matrix(0.4,0,0,0.307272,487.62,165.203)">
                <g transform="matrix(0.801727,0,0,0.801727,11.4937,58.6884)">
                    <g transform="matrix(0.984174,0,0,0.853555,-1304.89,-6128.22)">
                        <path d="M1426.7,7556.74L1426.85,7556.76L1426.98,7556.78L1427.12,7556.81L1427.25,7556.84L1427.39,7556.89L1427.51,7556.94L1427.64,7556.99L1427.76,7557.06L1427.88,7557.13L1428,7557.2L1428.11,7557.29L1428.22,7557.38L1428.32,7557.47L1428.42,7557.57L1428.52,7557.68L1428.61,7557.79L1428.7,7557.9L1428.78,7558.03L1428.86,7558.15L1428.93,7558.28L1429,7558.41L1429.06,7558.55L1429.12,7558.69L1429.16,7558.84L1429.21,7558.99L1429.25,7559.14L1429.28,7559.29L1429.3,7559.45L1429.32,7559.61L1429.33,7559.77L1429.33,7559.94L1429.33,7569.52L1429.33,7569.69L1429.32,7569.85L1429.3,7570.01L1429.28,7570.16L1429.25,7570.32L1429.21,7570.47L1429.16,7570.62L1429.12,7570.77L1429.06,7570.91L1429,7571.04L1428.93,7571.18L1428.86,7571.31L1428.78,7571.43L1428.7,7571.55L1428.61,7571.67L1428.52,7571.78L1428.42,7571.89L1428.32,7571.99L1428.22,7572.08L1428.11,7572.17L1428,7572.25L1427.88,7572.33L1427.76,7572.4L1427.64,7572.47L1427.51,7572.52L1427.39,7572.57L1427.25,7572.62L1427.12,7572.65L1426.98,7572.68L1426.85,7572.7L1426.7,7572.71L1426.56,7572.72L1382.22,7572.72L1382.08,7572.71L1381.94,7572.7L1381.8,7572.68L1381.67,7572.65L1381.53,7572.62L1381.4,7572.57L1381.27,7572.52L1381.15,7572.47L1381.02,7572.4L1380.9,7572.33L1380.79,7572.25L1380.67,7572.17L1380.57,7572.08L1380.46,7571.99L1380.36,7571.89L1380.27,7571.78L1380.17,7571.67L1380.09,7571.55L1380,7571.43L1379.93,7571.31L1379.85,7571.18L1379.79,7571.04L1379.73,7570.91L1379.67,7570.77L1379.62,7570.62L1379.58,7570.47L1379.54,7570.32L1379.51,7570.16L1379.49,7570.01L1379.47,7569.85L1379.46,7569.69L1379.45,7569.52L1379.45,7559.94L1379.46,7559.77L1379.47,7559.61L1379.49,7559.45L1379.51,7559.29L1379.54,7559.14L1379.58,7558.99L1379.62,7558.84L1379.67,7558.69L1379.73,7558.55L1379.79,7558.41L1379.85,7558.28L1379.93,7558.15L1380,7558.03L1380.09,7557.9L1380.17,7557.79L1380.27,7557.68L1380.36,7557.57L1380.46,7557.47L1380.57,7557.38L1380.67,7557.29L1380.79,7557.2L1380.9,7557.13L1381.02,7557.06L1381.15,7556.99L1381.27,7556.94L1381.4,7556.89L1381.53,7556.84L1381.67,7556.81L1381.8,7556.78L1381.94,7556.76L1382.08,7556.74L1382.22,7556.74L1426.56,7556.74L1426.7,7556.74ZM1382.26,7559.66L1382.21,7559.66L1382.2,7559.67L1382.18,7559.67L1382.17,7559.67L1382.16,7559.67L1382.15,7559.68L1382.14,7559.68L1382.13,7559.68L1382.12,7559.69L1382.11,7559.7L1382.11,7559.7L1382.09,7559.71L1382.09,7559.72L1382.08,7559.73L1382.07,7559.74L1382.06,7559.74L1382.05,7559.76L1382.04,7559.77L1382.03,7559.78L1382.03,7559.79L1382.02,7559.8L1382.02,7559.81L1382.01,7559.82L1382.01,7559.83L1382,7559.85L1382,7559.86L1382,7559.87L1381.99,7559.88L1381.99,7559.89L1381.99,7559.91L1381.99,7559.92L1381.99,7559.97L1381.99,7569.49L1381.99,7569.54L1381.99,7569.55L1381.99,7569.57L1381.99,7569.58L1382,7569.59L1382,7569.6L1382,7569.61L1382.01,7569.62L1382.01,7569.64L1382.02,7569.65L1382.02,7569.66L1382.03,7569.67L1382.03,7569.68L1382.04,7569.69L1382.05,7569.7L1382.06,7569.71L1382.07,7569.72L1382.08,7569.73L1382.09,7569.74L1382.09,7569.75L1382.11,7569.76L1382.11,7569.76L1382.12,7569.77L1382.13,7569.77L1382.14,7569.78L1382.15,7569.78L1382.16,7569.78L1382.17,7569.79L1382.18,7569.79L1382.2,7569.79L1382.21,7569.79L1382.26,7569.79L1426.53,7569.79L1426.58,7569.79L1426.59,7569.79L1426.6,7569.79L1426.61,7569.79L1426.62,7569.78L1426.63,7569.78L1426.64,7569.78L1426.65,7569.77L1426.66,7569.77L1426.67,7569.76L1426.68,7569.76L1426.69,7569.75L1426.7,7569.74L1426.71,7569.73L1426.72,7569.72L1426.73,7569.71L1426.74,7569.7L1426.75,7569.69L1426.75,7569.68L1426.76,7569.67L1426.77,7569.66L1426.77,7569.65L1426.78,7569.64L1426.78,7569.62L1426.78,7569.61L1426.79,7569.6L1426.79,7569.59L1426.79,7569.58L1426.8,7569.57L1426.8,7569.55L1426.8,7569.54L1426.8,7569.48L1426.8,7559.98L1426.8,7559.92L1426.8,7559.9L1426.8,7559.89L1426.79,7559.88L1426.79,7559.87L1426.79,7559.86L1426.78,7559.84L1426.78,7559.83L1426.78,7559.82L1426.77,7559.81L1426.77,7559.8L1426.76,7559.79L1426.75,7559.78L1426.75,7559.77L1426.74,7559.76L1426.73,7559.74L1426.72,7559.74L1426.71,7559.73L1426.7,7559.72L1426.69,7559.71L1426.68,7559.7L1426.67,7559.7L1426.66,7559.69L1426.65,7559.68L1426.64,7559.68L1426.63,7559.68L1426.62,7559.67L1426.61,7559.67L1426.6,7559.67L1426.59,7559.67L1426.58,7559.66L1426.53,7559.66L1382.26,7559.66Z" style="fill:rgb(205,213,223);"/>
                    </g>
                    <g transform="matrix(1,0,0,1,-1379.47,-7235.42)">
                        <path d="M1441.84,7547.15L1441.99,7547.16L1442.14,7547.18L1442.3,7547.2L1442.45,7547.23L1442.6,7547.27L1442.75,7547.31L1442.9,7547.36L1443.05,7547.41L1443.19,7547.46L1443.34,7547.53L1443.48,7547.59L1443.62,7547.66L1443.77,7547.74L1443.91,7547.82L1444.05,7547.9L1444.18,7547.99L1444.32,7548.07L1444.45,7548.17L1444.59,7548.27L1444.72,7548.37L1444.85,7548.47L1444.98,7548.58L1445.1,7548.69L1445.59,7549.12L1446.08,7549.56L1446.57,7550.01L1447.06,7550.46L1447.55,7550.91L1448.04,7551.37L1448.52,7551.83L1449,7552.29L1449.47,7552.75L1449.94,7553.2L1450.4,7553.65L1450.84,7554.1L1451.28,7554.54L1451.71,7554.97L1452.12,7555.38L1452.52,7555.79L1452.9,7556.19L1453.26,7556.57L1453.61,7556.93L1453.93,7557.28L1454.24,7557.61L1454.52,7557.92L1454.78,7558.2L1455.02,7558.47L1455.23,7558.71L1455.41,7558.93L1455.57,7559.12L1455.69,7559.28L1455.79,7559.41L1455.82,7559.47L1455.85,7559.51L1455.87,7559.55L1455.88,7559.58L1455.88,7559.6L1455.88,7559.61L1455.87,7559.62L1437.63,7559.62L1437.63,7551.32L1437.63,7551.15L1437.64,7550.98L1437.66,7550.82L1437.68,7550.66L1437.71,7550.5L1437.74,7550.34L1437.78,7550.18L1437.83,7550.03L1437.88,7549.88L1437.94,7549.73L1438,7549.58L1438.07,7549.44L1438.15,7549.29L1438.23,7549.15L1438.31,7549.02L1438.4,7548.89L1438.49,7548.76L1438.59,7548.64L1438.7,7548.51L1438.81,7548.4L1438.92,7548.28L1439.04,7548.18L1439.16,7548.07L1439.29,7547.97L1439.42,7547.88L1439.55,7547.79L1439.69,7547.7L1439.83,7547.62L1439.98,7547.55L1440.12,7547.48L1440.28,7547.41L1440.43,7547.35L1440.59,7547.3L1440.75,7547.26L1440.9,7547.22L1441.06,7547.19L1441.22,7547.17L1441.37,7547.16L1441.53,7547.15L1441.68,7547.15L1441.84,7547.15ZM1471.98,7547.15L1472.13,7547.16L1472.29,7547.17L1472.44,7547.19L1472.6,7547.22L1472.76,7547.26L1472.92,7547.3L1473.07,7547.35L1473.23,7547.41L1473.38,7547.48L1473.53,7547.55L1473.68,7547.62L1473.82,7547.7L1473.96,7547.79L1474.09,7547.88L1474.22,7547.97L1474.35,7548.07L1474.47,7548.18L1474.59,7548.28L1474.7,7548.4L1474.81,7548.51L1474.91,7548.64L1475.01,7548.76L1475.11,7548.89L1475.2,7549.02L1475.28,7549.15L1475.36,7549.29L1475.44,7549.44L1475.51,7549.58L1475.57,7549.73L1475.63,7549.88L1475.68,7550.03L1475.73,7550.18L1475.77,7550.34L1475.8,7550.5L1475.83,7550.66L1475.85,7550.82L1475.87,7550.98L1475.88,7551.15L1475.88,7551.32L1475.88,7559.62L1457.63,7559.62L1457.63,7559.61L1457.63,7559.6L1457.63,7559.58L1457.64,7559.55L1457.66,7559.51L1457.69,7559.47L1457.72,7559.41L1457.82,7559.28L1457.94,7559.12L1458.1,7558.93L1458.28,7558.71L1458.49,7558.47L1458.72,7558.2L1458.99,7557.92L1459.27,7557.61L1459.57,7557.28L1459.9,7556.93L1460.25,7556.57L1460.61,7556.19L1460.99,7555.79L1461.39,7555.38L1461.8,7554.97L1462.23,7554.54L1462.66,7554.1L1463.11,7553.65L1463.57,7553.2L1464.04,7552.75L1464.51,7552.29L1464.99,7551.83L1465.47,7551.37L1465.96,7550.91L1466.45,7550.46L1466.94,7550.01L1467.43,7549.56L1467.92,7549.12L1468.4,7548.69L1468.53,7548.58L1468.66,7548.47L1468.79,7548.37L1468.92,7548.27L1469.05,7548.17L1469.19,7548.07L1469.32,7547.99L1469.46,7547.9L1469.6,7547.82L1469.74,7547.74L1469.88,7547.66L1470.03,7547.59L1470.17,7547.53L1470.32,7547.46L1470.46,7547.41L1470.61,7547.36L1470.76,7547.31L1470.91,7547.27L1471.06,7547.23L1471.21,7547.2L1471.36,7547.18L1471.52,7547.16L1471.67,7547.15L1471.82,7547.15L1471.98,7547.15ZM1471.8,7549.64L1471.75,7549.65L1471.7,7549.65L1471.64,7549.66L1471.58,7549.67L1471.52,7549.69L1471.45,7549.71L1471.39,7549.73L1471.32,7549.75L1471.25,7549.78L1471.17,7549.81L1471.09,7549.85L1471.02,7549.88L1470.93,7549.93L1470.85,7549.97L1470.77,7550.02L1470.68,7550.08L1470.59,7550.14L1470.51,7550.2L1470.42,7550.26L1470.33,7550.33L1470.24,7550.4L1470.15,7550.48L1470.05,7550.56L1469.58,7550.98L1469.11,7551.41L1468.62,7551.85L1468.14,7552.29L1467.66,7552.74L1467.19,7553.19L1466.71,7553.64L1466.24,7554.09L1465.77,7554.54L1465.32,7554.99L1464.86,7555.43L1464.42,7555.87L1463.99,7556.3L1463.58,7556.72L1463.18,7557.12L1473.39,7557.12L1473.39,7551.34L1473.38,7551.25L1473.38,7551.18L1473.37,7551.11L1473.37,7551.05L1473.35,7550.98L1473.34,7550.92L1473.32,7550.86L1473.3,7550.79L1473.28,7550.73L1473.26,7550.67L1473.23,7550.61L1473.2,7550.55L1473.17,7550.49L1473.14,7550.44L1473.11,7550.38L1473.07,7550.33L1473.03,7550.28L1472.99,7550.23L1472.95,7550.18L1472.91,7550.13L1472.86,7550.09L1472.81,7550.04L1472.76,7550L1472.71,7549.96L1472.66,7549.92L1472.61,7549.88L1472.55,7549.85L1472.49,7549.82L1472.43,7549.79L1472.37,7549.76L1472.31,7549.73L1472.25,7549.71L1472.19,7549.69L1472.14,7549.68L1472.09,7549.66L1472.05,7549.66L1472,7549.65L1471.95,7549.64L1471.9,7549.64L1471.85,7549.64L1471.8,7549.64ZM1441.61,7549.64L1441.56,7549.64L1441.51,7549.65L1441.46,7549.66L1441.41,7549.66L1441.37,7549.68L1441.31,7549.69L1441.26,7549.71L1441.2,7549.73L1441.13,7549.76L1441.07,7549.79L1441.02,7549.82L1440.96,7549.85L1440.9,7549.88L1440.85,7549.92L1440.8,7549.96L1440.75,7550L1440.69,7550.04L1440.65,7550.09L1440.6,7550.13L1440.56,7550.18L1440.51,7550.23L1440.47,7550.28L1440.44,7550.33L1440.4,7550.38L1440.36,7550.44L1440.33,7550.49L1440.3,7550.55L1440.27,7550.61L1440.25,7550.67L1440.23,7550.73L1440.2,7550.79L1440.18,7550.86L1440.17,7550.92L1440.15,7550.98L1440.14,7551.05L1440.13,7551.11L1440.13,7551.18L1440.12,7551.25L1440.12,7551.34L1440.12,7557.12L1450.33,7557.12L1449.93,7556.72L1449.51,7556.3L1449.08,7555.87L1448.64,7555.43L1448.19,7554.99L1447.73,7554.54L1447.27,7554.09L1446.8,7553.64L1446.32,7553.19L1445.84,7552.74L1445.36,7552.29L1444.88,7551.85L1444.4,7551.41L1443.92,7550.98L1443.46,7550.56L1443.36,7550.48L1443.27,7550.4L1443.18,7550.33L1443.09,7550.26L1443,7550.2L1442.91,7550.14L1442.83,7550.08L1442.74,7550.02L1442.66,7549.97L1442.57,7549.93L1442.49,7549.88L1442.41,7549.85L1442.34,7549.81L1442.26,7549.78L1442.19,7549.75L1442.12,7549.73L1442.05,7549.71L1441.99,7549.69L1441.92,7549.67L1441.87,7549.66L1441.81,7549.65L1441.76,7549.65L1441.7,7549.64L1441.65,7549.64L1441.61,7549.64Z" style="fill:rgb(205,213,223);"/>
                    </g>
                    <g transform="matrix(0.820145,0,0,1.59224,-1074.53,-11699)">
                        <path d="M1429.33,7570.32L1429.33,7570.38L1429.33,7570.44L1429.32,7570.51L1429.31,7570.57L1429.3,7570.63L1429.28,7570.69L1429.26,7570.74L1429.24,7570.8L1429.21,7570.86L1429.19,7570.92L1429.16,7570.98L1429.12,7571.03L1429.05,7571.14L1428.97,7571.25L1428.87,7571.36L1428.77,7571.46L1428.66,7571.56L1428.54,7571.66L1428.41,7571.75L1428.27,7571.84L1428.12,7571.93L1427.97,7572.02L1427.81,7572.09L1427.64,7572.17L1427.46,7572.24L1427.28,7572.31L1427.09,7572.37L1426.9,7572.43L1426.7,7572.48L1426.49,7572.53L1426.28,7572.57L1426.06,7572.61L1425.95,7572.63L1425.84,7572.64L1425.73,7572.66L1425.62,7572.67L1425.5,7572.68L1425.39,7572.69L1425.27,7572.7L1425.16,7572.7L1425.04,7572.71L1424.92,7572.71L1424.8,7572.72L1424.68,7572.72L1384.11,7572.72L1383.99,7572.72L1383.87,7572.71L1383.75,7572.71L1383.63,7572.7L1383.51,7572.7L1383.4,7572.69L1383.28,7572.68L1383.17,7572.67L1383.06,7572.66L1382.94,7572.64L1382.83,7572.63L1382.72,7572.61L1382.51,7572.57L1382.3,7572.53L1382.09,7572.48L1381.89,7572.43L1381.69,7572.37L1381.51,7572.31L1381.32,7572.24L1381.15,7572.17L1380.98,7572.09L1380.82,7572.02L1380.66,7571.93L1380.52,7571.84L1380.38,7571.75L1380.25,7571.66L1380.13,7571.56L1380.02,7571.46L1379.91,7571.36L1379.82,7571.25L1379.74,7571.14L1379.66,7571.03L1379.63,7570.98L1379.6,7570.92L1379.57,7570.86L1379.55,7570.8L1379.53,7570.74L1379.51,7570.69L1379.49,7570.63L1379.48,7570.57L1379.47,7570.51L1379.46,7570.44L1379.45,7570.38L1379.45,7570.32L1379.45,7556.74L1429.33,7556.74L1429.33,7570.32ZM1382.49,7558.31L1382.49,7570.31L1382.5,7570.34L1382.5,7570.36L1382.5,7570.39L1382.5,7570.41L1382.51,7570.43L1382.51,7570.45L1382.52,7570.47L1382.53,7570.49L1382.54,7570.51L1382.55,7570.53L1382.56,7570.55L1382.56,7570.56L1382.59,7570.61L1382.62,7570.64L1382.65,7570.68L1382.69,7570.71L1382.73,7570.75L1382.77,7570.78L1382.81,7570.82L1382.86,7570.85L1382.91,7570.88L1382.97,7570.91L1383.02,7570.93L1383.08,7570.96L1383.14,7570.99L1383.21,7571.01L1383.27,7571.03L1383.34,7571.05L1383.41,7571.07L1383.48,7571.09L1383.55,7571.1L1383.64,7571.12L1383.66,7571.12L1383.7,7571.12L1383.74,7571.13L1383.78,7571.13L1383.82,7571.14L1383.86,7571.14L1383.9,7571.14L1383.94,7571.15L1383.98,7571.15L1384.02,7571.15L1384.06,7571.15L1384.12,7571.15L1424.66,7571.15L1424.72,7571.15L1424.77,7571.15L1424.81,7571.15L1424.85,7571.15L1424.89,7571.14L1424.93,7571.14L1424.97,7571.14L1425.01,7571.13L1425.05,7571.13L1425.09,7571.12L1425.12,7571.12L1425.14,7571.12L1425.23,7571.1L1425.31,7571.09L1425.38,7571.07L1425.44,7571.05L1425.51,7571.03L1425.58,7571.01L1425.64,7570.99L1425.7,7570.96L1425.76,7570.93L1425.82,7570.91L1425.87,7570.88L1425.92,7570.85L1425.97,7570.82L1426.02,7570.78L1426.06,7570.75L1426.1,7570.71L1426.13,7570.68L1426.16,7570.64L1426.19,7570.61L1426.23,7570.56L1426.23,7570.55L1426.24,7570.53L1426.25,7570.51L1426.26,7570.49L1426.27,7570.47L1426.27,7570.45L1426.28,7570.43L1426.28,7570.41L1426.29,7570.39L1426.29,7570.36L1426.29,7570.34L1426.29,7570.31L1426.29,7558.31L1382.49,7558.31Z" style="fill:rgb(205,213,223);"/>
                    </g>
                </g>
                <g transform="matrix(0.820722,0,0,0.820722,-662.46,-5883.91)">
                    <circle cx="896.663" cy="7568.05" r="36.553" style="fill:none;"/>
                </g>
            </g>
        </g>
    </g>
</svg>
