<?xml version="1.0" encoding="UTF-8" standalone="no"?>
<!DOCTYPE svg PUBLIC "-//W3C//DTD SVG 1.1//EN" "http://www.w3.org/Graphics/SVG/1.1/DTD/svg11.dtd">
<svg width="100%" height="100%" viewBox="0 0 24 24" version="1.1" xmlns="http://www.w3.org/2000/svg" xmlns:xlink="http://www.w3.org/1999/xlink" xml:space="preserve" xmlns:serif="http://www.serif.com/" style="fill-rule:evenodd;clip-rule:evenodd;stroke-linecap:round;stroke-linejoin:round;stroke-miterlimit:1.5;">
    <g transform="matrix(1,0,0,1,-382,-577)">
        <g transform="matrix(1,0,0,1.30178,0,1.56509e-12)">
            <g id="icon-relation_nor" transform="matrix(1,0,0,1,0,46.0908)">
                <g>
                    <g transform="matrix(0.410044,-0.314987,0.410044,0.314987,20.611,369.829)">
                        <path d="M398.851,513.324C398.851,511.698 397.53,510.377 395.904,510.377L391.531,510.377C389.905,510.377 388.585,511.698 388.585,513.324C388.585,514.95 389.905,516.27 391.531,516.27L394.077,516.27" style="fill:none;stroke:rgb(205,213,223);stroke-width:1.38px;"/>
                    </g>
                    <g transform="matrix(1.03786,0,0,0.797262,-23.6814,-15.8362)">
                        <circle cx="402.307" cy="529.486" r="7.708" style="fill:none;stroke:rgb(205,213,223);stroke-width:0.8px;"/>
                    </g>
                    <g transform="matrix(-0.410044,0.314987,-0.410044,-0.314987,767.346,442.964)">
                        <path d="M398.851,513.324C398.851,511.698 397.53,510.377 395.904,510.377L391.531,510.377C389.905,510.377 388.585,511.698 388.585,513.324C388.585,514.95 389.905,516.27 391.531,516.27L394.077,516.27" style="fill:none;stroke:rgb(205,213,223);stroke-width:1.38px;"/>
                    </g>
                </g>
                <g transform="matrix(0.961639,0,0,0.738711,13.3339,146.7)">
                    <circle cx="395.851" cy="351.514" r="12.479" style="fill:none;"/>
                </g>
            </g>
        </g>
    </g>
</svg>
