<?xml version="1.0" encoding="UTF-8" standalone="no"?>
<!DOCTYPE svg PUBLIC "-//W3C//DTD SVG 1.1//EN" "http://www.w3.org/Graphics/SVG/1.1/DTD/svg11.dtd">
<svg width="100%" height="100%" viewBox="0 0 24 24" version="1.1" xmlns="http://www.w3.org/2000/svg" xmlns:xlink="http://www.w3.org/1999/xlink" xml:space="preserve" xmlns:serif="http://www.serif.com/" style="fill-rule:evenodd;clip-rule:evenodd;stroke-linecap:round;stroke-linejoin:round;stroke-miterlimit:1.5;">
    <g transform="matrix(1,0,0,1,-382,-458)">
        <g transform="matrix(1,0,0,1.30178,0,1.56509e-12)">
            <g id="icon-identity_sel">
                <g transform="matrix(1,0,0,1,-11.8237,-4.36659e-15)">
                    <g transform="matrix(0.858537,0,0,0.680346,60.8602,42.0778)">
                        <path d="M410.41,463.043C410.41,462.295 409.784,461.688 409.013,461.688L394.26,461.688C393.489,461.688 392.863,462.295 392.863,463.043L392.863,473.876C392.863,474.623 393.489,475.23 394.26,475.23L409.013,475.23C409.784,475.23 410.41,474.623 410.41,473.876L410.41,463.043Z" style="fill:none;stroke:rgb(95,142,212);stroke-width:0.92px;"/>
                    </g>
                    <g transform="matrix(0.679288,0,0,0.515366,129.621,118.189)">
                        <circle cx="402.41" cy="469.07" r="1.849" style="fill:none;stroke:rgb(95,142,212);stroke-width:1.19px;"/>
                    </g>
                    <g transform="matrix(0.619061,0,0,0.47555,153.423,137.426)">
                        <path d="M398.862,473.952C399.113,471.796 400.948,470.12 403.171,470.12C405.394,470.12 407.229,471.796 407.48,473.952" style="fill:none;stroke:rgb(95,142,212);stroke-width:1.29px;"/>
                    </g>
                    <g transform="matrix(0.716932,0,0,0.768179,116.095,0.217027)">
                        <path d="M406.602,467.527L410.408,467.527" style="fill:none;stroke:rgb(95,142,212);stroke-width:0.92px;"/>
                    </g>
                    <g transform="matrix(0.716932,0,0,0.768179,116.095,1.75339)">
                        <path d="M406.602,467.527L410.408,467.527" style="fill:none;stroke:rgb(95,142,212);stroke-width:0.92px;"/>
                    </g>
                    <g transform="matrix(0.716932,0,0,0.768179,116.095,3.28974)">
                        <path d="M406.602,467.527L411.408,467.527" style="fill:none;stroke:rgb(95,142,212);stroke-width:0.92px;"/>
                    </g>
                </g>
                <g transform="matrix(0.961639,0,0,0.738711,13.3339,101.377)">
                    <circle cx="395.851" cy="351.514" r="12.479" style="fill:none;"/>
                </g>
            </g>
        </g>
    </g>
</svg>
