<?xml version="1.0" encoding="UTF-8" standalone="no"?>
<!DOCTYPE svg PUBLIC "-//W3C//DTD SVG 1.1//EN" "http://www.w3.org/Graphics/SVG/1.1/DTD/svg11.dtd">
<svg width="100%" height="100%" viewBox="0 0 24 24" version="1.1" xmlns="http://www.w3.org/2000/svg" xmlns:xlink="http://www.w3.org/1999/xlink" xml:space="preserve" xmlns:serif="http://www.serif.com/" style="fill-rule:evenodd;clip-rule:evenodd;stroke-linecap:round;stroke-linejoin:round;stroke-miterlimit:1.5;">
    <g transform="matrix(1,0,0,1,-382,-338)">
        <g transform="matrix(1,0,0,1.30178,0,1.56509e-12)">
            <g id="icon-information_sel" transform="matrix(1,0,0,1,0.515562,0.38701)">
                <g transform="matrix(1,0,0,1,-10.2814,0.487498)">
                    <g transform="matrix(0.499114,0,0,0.383409,200.783,131.431)">
                        <circle cx="406.687" cy="349.028" r="6.956" style="fill:none;stroke:rgb(95,142,212);stroke-width:1.6px;"/>
                    </g>
                    <g transform="matrix(0.547918,0,0,0.420899,181.042,119.06)">
                        <path d="M393.907,366.672C393.906,366.634 393.906,366.596 393.906,366.557C393.906,359.611 399.546,353.972 406.492,353.972C413.438,353.972 419.077,359.611 419.077,366.557C419.077,366.596 419.077,366.634 419.077,366.672L393.907,366.672Z" style="fill:none;stroke:rgb(95,142,212);stroke-width:1.46px;"/>
                    </g>
                </g>
                <g transform="matrix(0.961639,0,0,0.738711,12.8184,8.80848)">
                    <circle cx="395.851" cy="351.514" r="12.479" style="fill:none;"/>
                </g>
            </g>
        </g>
    </g>
</svg>
