<?xml version="1.0" encoding="UTF-8" standalone="no"?>
<!DOCTYPE svg PUBLIC "-//W3C//DTD SVG 1.1//EN" "http://www.w3.org/Graphics/SVG/1.1/DTD/svg11.dtd">
<svg width="100%" height="100%" viewBox="0 0 24 24" version="1.1" xmlns="http://www.w3.org/2000/svg" xmlns:xlink="http://www.w3.org/1999/xlink" xml:space="preserve" xmlns:serif="http://www.serif.com/" style="fill-rule:evenodd;clip-rule:evenodd;stroke-linejoin:round;stroke-miterlimit:1.41421;">
    <g transform="matrix(1,0,0,1,-382,-575)">
        <g transform="matrix(1,0,0,1.30178,0,1.56509e-12)">
            <g id="icon-API_sel" transform="matrix(1,0,0,1,0,44.5544)">
                <g transform="matrix(1,0,0,0.768179,-25.4544,-33.0744)">
                    <path d="M421.954,571.384L421.954,577.556C421.954,578.935 420.834,580.056 419.454,580.056C418.075,580.056 416.954,578.935 416.954,577.556L416.954,575.584L417.754,575.584L417.754,577.556C417.754,578.494 418.516,579.256 419.454,579.256C420.393,579.256 421.154,578.494 421.154,577.556L421.154,571.384L421.954,571.384ZM415.926,570.356L413.954,570.356C413.016,570.356 412.254,571.117 412.254,572.056C412.254,572.994 413.016,573.756 413.954,573.756L420.126,573.756L420.126,574.556L413.954,574.556C412.575,574.556 411.454,573.435 411.454,572.056C411.454,570.676 412.575,569.556 413.954,569.556L415.926,569.556L415.926,570.356ZM424.954,574.556L422.91,574.556L422.91,573.756L424.954,573.756C425.893,573.756 426.654,572.994 426.654,572.056C426.654,571.117 425.893,570.356 424.954,570.356L418.71,570.356L418.71,569.556L424.954,569.556C426.334,569.556 427.454,570.676 427.454,572.056C427.454,573.435 426.334,574.556 424.954,574.556ZM417.754,572.8L416.954,572.8L416.954,566.556C416.954,565.176 418.075,564.056 419.454,564.056C420.834,564.056 421.954,565.176 421.954,566.556L421.954,568.6L421.154,568.6L421.154,566.556C421.154,565.617 420.393,564.856 419.454,564.856C418.516,564.856 417.754,565.617 417.754,566.556L417.754,572.8Z" style="fill:rgb(95,142,212);"/>
                </g>
                <g transform="matrix(0.961639,0,0,0.738711,13.3339,146.7)">
                    <circle cx="395.851" cy="351.514" r="12.479" style="fill:none;"/>
                </g>
            </g>
        </g>
    </g>
</svg>
