<?xml version="1.0" encoding="UTF-8" standalone="no"?>
<!DOCTYPE svg PUBLIC "-//W3C//DTD SVG 1.1//EN" "http://www.w3.org/Graphics/SVG/1.1/DTD/svg11.dtd">
<svg width="100%" height="100%" viewBox="0 0 24 24" version="1.1" xmlns="http://www.w3.org/2000/svg" xmlns:xlink="http://www.w3.org/1999/xlink" xml:space="preserve" xmlns:serif="http://www.serif.com/" style="fill-rule:evenodd;clip-rule:evenodd;stroke-linecap:round;stroke-linejoin:round;stroke-miterlimit:1.5;">
    <g transform="matrix(1,0,0,1,-2382,-518)">
        <g transform="matrix(1,0,0,1.30178,2000,1.56509e-12)">
            <g id="icon-money_nor" transform="matrix(1,0,0,1,0,0.768179)">
                <g>
                    <g transform="matrix(1.03786,0,0,0.797262,-23.6814,-15.8362)">
                        <circle cx="402.307" cy="529.486" r="7.708" style="fill:none;stroke:rgb(205,213,223);stroke-width:0.8px;"/>
                    </g>
                    <g transform="matrix(1.10181,0,0,1.10181,-39.8713,-41.1979)">
                        <g transform="matrix(1.90194,0,0,0.768179,-382.802,45.7219)">
                            <path d="M406.602,467.527L409.883,467.527" style="fill:none;stroke:rgb(205,213,223);stroke-width:0.66px;"/>
                        </g>
                        <g transform="matrix(1.1646e-16,1.46103,-1,4.70374e-17,861.178,-189.192)">
                            <path d="M406.602,467.527L409.709,467.527" style="fill:none;stroke:rgb(205,213,223);stroke-width:0.66px;"/>
                        </g>
                        <g transform="matrix(1.90194,0,0,0.768179,-382.255,47.5298)">
                            <path d="M406.602,467.527L409.308,467.527" style="fill:none;stroke:rgb(205,213,223);stroke-width:0.66px;"/>
                        </g>
                        <g transform="matrix(0.950971,1.67266,-0.866025,0.507748,410.433,-514.594)">
                            <path d="M406.602,467.527L407.78,467.527" style="fill:none;stroke:rgb(205,213,223);stroke-width:0.45px;"/>
                        </g>
                        <g transform="matrix(-0.950971,1.67266,0.866025,0.507748,376.753,-514.594)">
                            <path d="M406.602,467.527L407.78,467.527" style="fill:none;stroke:rgb(205,213,223);stroke-width:0.45px;"/>
                        </g>
                    </g>
                </g>
                <g transform="matrix(0.961639,0,0,0.738711,13.3339,146.7)">
                    <circle cx="395.851" cy="351.514" r="12.479" style="fill:none;"/>
                </g>
            </g>
        </g>
    </g>
</svg>
