<?xml version="1.0" encoding="UTF-8" standalone="no"?>
<!DOCTYPE svg PUBLIC "-//W3C//DTD SVG 1.1//EN" "http://www.w3.org/Graphics/SVG/1.1/DTD/svg11.dtd">
<svg width="100%" height="100%" viewBox="0 0 24 24" version="1.1" xmlns="http://www.w3.org/2000/svg" xmlns:xlink="http://www.w3.org/1999/xlink" xml:space="preserve" xmlns:serif="http://www.serif.com/" style="fill-rule:evenodd;clip-rule:evenodd;stroke-linecap:round;stroke-linejoin:round;stroke-miterlimit:1.5;">
    <g transform="matrix(1,0,0,1,-382,-398)">
        <g transform="matrix(1,0,0,1.30178,0,1.56509e-12)">
            <g id="icon-safe_sel">
                <g transform="matrix(1.09593,0,0,1.09593,-49.4048,-29.6061)">
                    <g transform="matrix(1,0,0,0.768179,18.7844,45.5424)">
                        <path d="M385.68,342.456C385.68,342.456 383.711,344.865 379.313,345.228L379.288,351.581C379.288,351.581 380.565,356.777 385.676,357.637M385.682,342.46C385.682,342.46 387.64,344.865 392.038,345.228L392.063,351.581C392.063,351.581 390.786,356.777 385.676,357.637" style="fill:none;stroke:rgb(95,142,212);stroke-width:0.8px;"/>
                    </g>
                    <g transform="matrix(1.0829,0,0,0.831859,-13.4815,23.972)">
                        <path d="M383.529,349.326L385.72,351.388L389.134,347.459" style="fill:none;stroke:rgb(95,142,212);stroke-width:0.8px;"/>
                    </g>
                </g>
                <g transform="matrix(0.961639,0,0,0.738711,13.3339,55.2863)">
                    <circle cx="395.851" cy="351.514" r="12.479" style="fill:none;"/>
                </g>
            </g>
        </g>
    </g>
</svg>
