<?xml version="1.0" encoding="UTF-8" standalone="no"?><!DOCTYPE svg PUBLIC "-//W3C//DTD SVG 1.1//EN" "http://www.w3.org/Graphics/SVG/1.1/DTD/svg11.dtd"><svg width="100%" height="100%" viewBox="0 0 20 20" version="1.1" xmlns="http://www.w3.org/2000/svg" xmlns:xlink="http://www.w3.org/1999/xlink" xml:space="preserve" xmlns:serif="http://www.serif.com/" style="fill-rule:evenodd;clip-rule:evenodd;stroke-linejoin:round;stroke-miterlimit:1.41421;"><g id="icon-sell_nor"><g><g><path d="M3.707,2.55c0,-0.028 -0.022,-0.05 -0.05,-0.05l-0.9,0c-0.027,0 -0.05,0.022 -0.05,0.05l0,14.852c0,0.028 0.023,0.05 0.05,0.05l0.9,0c0.028,0 0.05,-0.022 0.05,-0.05l0,-14.852Z" style="fill:#38e168;"/><path d="M17.293,16.55c0,-0.028 -0.023,-0.05 -0.05,-0.05l-12.313,0c-0.027,0 -0.05,0.022 -0.05,0.05l0,0.9c0,0.028 0.023,0.05 0.05,0.05l12.313,0c0.027,0 0.05,-0.022 0.05,-0.05l0,-0.9Z" style="fill:#38e168;"/><path d="M17.293,13.217c0,-0.028 -0.023,-0.05 -0.05,-0.05l-12.313,0c-0.027,0 -0.05,0.022 -0.05,0.05l0,0.9c0,0.027 0.023,0.05 0.05,0.05l12.313,0c0.027,0 0.05,-0.023 0.05,-0.05l0,-0.9Z" style="fill:#38e168;"/><path d="M17.293,9.883c0,-0.027 -0.023,-0.05 -0.05,-0.05l-12.313,0c-0.027,0 -0.05,0.023 -0.05,0.05l0,0.9c0,0.028 0.023,0.05 0.05,0.05l12.313,0c0.027,0 0.05,-0.022 0.05,-0.05l0,-0.9Z" style="fill:#38e168;"/><path d="M17.293,6.55c0,-0.028 -0.023,-0.05 -0.05,-0.05l-12.313,0c-0.027,0 -0.05,0.022 -0.05,0.05l0,0.9c0,0.028 0.023,0.05 0.05,0.05l12.313,0c0.027,0 0.05,-0.022 0.05,-0.05l0,-0.9Z" style="fill:#38e168;"/><path d="M17.293,2.55c0,-0.028 -0.023,-0.05 -0.05,-0.05l-13.953,0c-0.028,0 -0.05,0.022 -0.05,0.05l0,0.9c0,0.028 0.022,0.05 0.05,0.05l13.953,0c0.027,0 0.05,-0.022 0.05,-0.05l0,-0.9Z" style="fill:#38e168;"/></g><path d="M19.051,0.001l0.051,0.004l0.05,0.007l0.049,0.008l0.049,0.012l0.047,0.013l0.047,0.016l0.045,0.018l0.044,0.02l0.043,0.022l0.042,0.024l0.041,0.026l0.039,0.028l0.038,0.029l0.036,0.032l0.035,0.033l0.033,0.035l0.032,0.036l0.029,0.038l0.028,0.039l0.026,0.041l0.024,0.042l0.022,0.043l0.02,0.044l0.018,0.045l0.016,0.047l0.013,0.047l0.012,0.049l0.008,0.049l0.007,0.05l0.004,0.051l0.001,0.051l0,18l-0.001,0.051l-0.004,0.051l-0.007,0.05l-0.008,0.049l-0.012,0.049l-0.013,0.047l-0.016,0.047l-0.018,0.045l-0.02,0.044l-0.022,0.043l-0.024,0.042l-0.026,0.041l-0.028,0.039l-0.029,0.038l-0.032,0.036l-0.033,0.035l-0.035,0.033l-0.036,0.032l-0.038,0.029l-0.039,0.028l-0.041,0.026l-0.042,0.024l-0.043,0.022l-0.044,0.02l-0.045,0.018l-0.047,0.016l-0.047,0.013l-0.049,0.012l-0.049,0.008l-0.05,0.007l-0.051,0.004l-0.051,0.001l-18,0l-0.051,-0.001l-0.051,-0.004l-0.05,-0.007l-0.049,-0.008l-0.049,-0.012l-0.047,-0.013l-0.047,-0.016l-0.045,-0.018l-0.044,-0.02l-0.043,-0.022l-0.042,-0.024l-0.041,-0.026l-0.039,-0.028l-0.038,-0.029l-0.036,-0.032l-0.035,-0.033l-0.033,-0.035l-0.032,-0.036l-0.029,-0.038l-0.028,-0.039l-0.026,-0.041l-0.024,-0.042l-0.022,-0.043l-0.02,-0.044l-0.018,-0.045l-0.016,-0.047l-0.013,-0.047l-0.012,-0.049l-0.008,-0.049l-0.007,-0.05l-0.004,-0.051l-0.001,-0.051l0,-18l0.001,-0.051l0.004,-0.051l0.007,-0.05l0.008,-0.049l0.012,-0.049l0.013,-0.047l0.016,-0.047l0.018,-0.045l0.02,-0.044l0.022,-0.043l0.024,-0.042l0.026,-0.041l0.028,-0.039l0.029,-0.038l0.032,-0.036l0.033,-0.035l0.035,-0.033l0.036,-0.032l0.038,-0.029l0.039,-0.028l0.041,-0.026l0.042,-0.024l0.043,-0.022l0.044,-0.02l0.045,-0.018l0.047,-0.016l0.047,-0.013l0.049,-0.012l0.049,-0.008l0.05,-0.007l0.051,-0.004l0.051,-0.001l18,0l0.051,0.001Zm-18.045,0.499l-0.032,0.001l-0.026,0.002l-0.025,0.003l-0.024,0.004l-0.024,0.006l-0.024,0.007l-0.022,0.007l-0.023,0.009l-0.023,0.011l-0.021,0.01l-0.02,0.012l-0.021,0.013l-0.02,0.015l-0.018,0.014l-0.019,0.016l-0.017,0.017l-0.017,0.017l-0.016,0.019l-0.014,0.018l-0.015,0.02l-0.013,0.021l-0.012,0.02l-0.01,0.021l-0.011,0.023l-0.009,0.023l-0.007,0.022l-0.007,0.024l-0.006,0.024l-0.004,0.024l-0.003,0.025l-0.002,0.026l-0.001,0.032l0,17.988l0.001,0.032l0.002,0.026l0.003,0.025l0.004,0.024l0.006,0.024l0.007,0.024l0.007,0.022l0.009,0.023l0.011,0.023l0.01,0.021l0.012,0.02l0.013,0.021l0.015,0.02l0.014,0.018l0.016,0.019l0.017,0.017l0.017,0.017l0.019,0.016l0.018,0.014l0.02,0.015l0.021,0.013l0.02,0.012l0.021,0.01l0.023,0.011l0.023,0.009l0.022,0.007l0.024,0.007l0.024,0.006l0.024,0.004l0.025,0.003l0.026,0.002l0.032,0.001l17.988,0l0.032,-0.001l0.026,-0.002l0.025,-0.003l0.024,-0.004l0.024,-0.006l0.024,-0.007l0.022,-0.007l0.023,-0.009l0.023,-0.011l0.021,-0.01l0.02,-0.012l0.021,-0.013l0.02,-0.015l0.018,-0.014l0.019,-0.016l0.017,-0.017l0.017,-0.017l0.016,-0.019l0.014,-0.018l0.015,-0.02l0.013,-0.021l0.012,-0.02l0.01,-0.021l0.011,-0.023l0.009,-0.023l0.007,-0.022l0.007,-0.024l0.006,-0.024l0.004,-0.024l0.003,-0.025l0.002,-0.026l0.001,-0.032l0,-17.988l-0.001,-0.032l-0.002,-0.026l-0.003,-0.025l-0.004,-0.024l-0.006,-0.024l-0.007,-0.024l-0.007,-0.022l-0.009,-0.023l-0.011,-0.023l-0.01,-0.021l-0.012,-0.02l-0.013,-0.021l-0.015,-0.02l-0.014,-0.018l-0.016,-0.019l-0.017,-0.017l-0.017,-0.017l-0.019,-0.016l-0.018,-0.014l-0.02,-0.015l-0.021,-0.013l-0.02,-0.012l-0.021,-0.01l-0.023,-0.011l-0.023,-0.009l-0.022,-0.007l-0.024,-0.007l-0.024,-0.006l-0.024,-0.004l-0.025,-0.003l-0.026,-0.002l-0.032,-0.001l-17.988,0Z" style="fill:#7683a9;"/></g></g></svg>