<?xml version="1.0" encoding="UTF-8" standalone="no"?><!DOCTYPE svg PUBLIC "-//W3C//DTD SVG 1.1//EN" "http://www.w3.org/Graphics/SVG/1.1/DTD/svg11.dtd"><svg width="100%" height="100%" viewBox="0 0 22 22" version="1.1" xmlns="http://www.w3.org/2000/svg" xmlns:xlink="http://www.w3.org/1999/xlink" xml:space="preserve" xmlns:serif="http://www.serif.com/" style="fill-rule:evenodd;clip-rule:evenodd;stroke-linejoin:round;stroke-miterlimit:1.41421;"><g id="icon-ios_nor"><path d="M16.485,11.236c0.029,3.024 2.782,4.031 2.814,4.045c-0.025,0.069 -0.441,1.434 -1.453,2.845c-0.874,1.218 -1.779,2.43 -3.207,2.455c-1.406,0.026 -1.856,-0.793 -3.462,-0.793c-1.605,0 -2.107,0.768 -3.435,0.819c-1.377,0.05 -2.428,-1.316 -3.309,-2.53c-1.803,-2.484 -3.178,-7.018 -1.329,-10.078c0.917,-1.521 2.558,-2.482 4.337,-2.508c1.354,-0.023 2.634,0.871 3.46,0.871c0.829,0 2.381,-1.075 4.014,-0.917c0.683,0.027 2.603,0.262 3.835,1.98c-0.099,0.062 -2.291,1.277 -2.265,3.811l0,0Zm-5.75,-6.019c-0.158,-1.15 0.435,-2.345 1.113,-3.095c0.757,-0.846 2.034,-1.474 3.088,-1.514c0.136,1.171 -0.359,2.347 -1.09,3.194c-0.733,0.844 -1.934,1.502 -3.111,1.415l0,0Z" style="fill:#69769d;fill-rule:nonzero;"/><rect x="0" y="0" width="22" height="22" style="fill:none;"/></g></svg>