<?xml version="1.0" encoding="UTF-8" standalone="no"?><!DOCTYPE svg PUBLIC "-//W3C//DTD SVG 1.1//EN" "http://www.w3.org/Graphics/SVG/1.1/DTD/svg11.dtd"><svg width="100%" height="100%" viewBox="0 0 16 16" version="1.1" xmlns="http://www.w3.org/2000/svg" xmlns:xlink="http://www.w3.org/1999/xlink" xml:space="preserve" xmlns:serif="http://www.serif.com/" style="fill-rule:evenodd;clip-rule:evenodd;stroke-linejoin:round;stroke-miterlimit:1.41421;"><g id="icon-Q_sel"><circle cx="8" cy="8" r="7" style="fill:#69769d;stroke:#69769d;stroke-width:0.5px;"/><path d="M8.221,11.802l0,-0.884l-1.072,0l0,0.884l1.072,0Zm0,-1.882l0,-0.65c0,-0.487 0.085,-0.845 0.255,-1.072c0.169,-0.228 0.386,-0.445 0.65,-0.65l0.415,-0.315c0.438,-0.34 0.7,-0.624 0.787,-0.854c0.087,-0.231 0.131,-0.421 0.131,-0.573c0,-0.282 -0.106,-0.546 -0.318,-0.794c-0.212,-0.248 -0.518,-0.446 -0.918,-0.593c-0.4,-0.148 -0.83,-0.221 -1.29,-0.221c-0.438,0 -0.844,0.065 -1.219,0.197c-0.376,0.132 -0.665,0.315 -0.868,0.55c-0.203,0.234 -0.305,0.461 -0.305,0.68l0,0.053l1.119,0l0,-0.053c0,-0.237 0.103,-0.411 0.308,-0.523c0.206,-0.112 0.487,-0.167 0.844,-0.167c0.434,0 0.798,0.089 1.093,0.268c0.294,0.178 0.442,0.402 0.442,0.67c0,0.16 -0.063,0.324 -0.188,0.489c-0.125,0.165 -0.333,0.379 -0.623,0.643l-0.456,0.409c-0.227,0.196 -0.44,0.459 -0.636,0.787c-0.197,0.328 -0.295,0.752 -0.295,1.27l0,0.449l1.072,0Z" style="fill:#19213e;"/></g></svg>