<?xml version="1.0" encoding="UTF-8" standalone="no"?><!DOCTYPE svg PUBLIC "-//W3C//DTD SVG 1.1//EN" "http://www.w3.org/Graphics/SVG/1.1/DTD/svg11.dtd"><svg width="100%" height="100%" viewBox="0 0 22 22" version="1.1" xmlns="http://www.w3.org/2000/svg" xmlns:xlink="http://www.w3.org/1999/xlink" xml:space="preserve" xmlns:serif="http://www.serif.com/" style="fill-rule:evenodd;clip-rule:evenodd;stroke-linejoin:round;stroke-miterlimit:1.41421;"><g id="icon-android_sel"><path id="zv" d="M19.711,15.176l-0.176,0c-0.713,0 -1.289,-0.557 -1.289,-1.243l0,-5.032c0,-0.688 0.576,-1.245 1.289,-1.245l0.176,0c0.713,0 1.289,0.557 1.289,1.245l0,5.032c0,0.686 -0.579,1.243 -1.289,1.243Zm-3.579,1.868l-1.406,0l0,2.714c0,0.686 -0.579,1.243 -1.292,1.243l-0.176,0c-0.713,0 -1.289,-0.557 -1.289,-1.243l0,-2.714l-2.17,0l0,2.714c0,0.686 -0.579,1.243 -1.292,1.243l-0.175,0c-0.713,0 -1.292,-0.557 -1.292,-1.243l0,-2.714l-1.23,0c-0.713,0 -1.289,-0.557 -1.289,-1.243l0,-7.634c0,-0.135 0.004,-0.267 0.014,-0.396l12.871,0c0.01,0.129 0.015,0.264 0.015,0.396l0,7.631c0,0.689 -0.576,1.246 -1.289,1.246Zm-8.347,-14.085l-1.079,-1.804c-0.025,-0.039 -0.01,-0.093 0.031,-0.117l0.052,-0.027c0.041,-0.025 0.095,-0.01 0.119,0.032l1.087,1.816c0.796,-0.366 1.684,-0.571 2.624,-0.571l0.703,0c0.904,0 1.761,0.19 2.53,0.529l1.064,-1.774c0.024,-0.04 0.078,-0.054 0.12,-0.032l0.051,0.027c0.041,0.024 0.056,0.075 0.032,0.117l-1.055,1.76c1.707,0.83 2.952,2.41 3.274,4.29l-12.737,0c0.315,-1.846 1.526,-3.404 3.184,-4.246Zm6.089,2.324c0.373,0 0.676,-0.227 0.676,-0.508c0,-0.28 -0.303,-0.507 -0.676,-0.507c-0.372,0 -0.674,0.227 -0.674,0.507c0,0.281 0.3,0.508 0.674,0.508Zm-5.982,0.056c0.371,0 0.674,-0.229 0.674,-0.51c0,-0.281 -0.303,-0.508 -0.674,-0.508c-0.373,0 -0.674,0.227 -0.674,0.508c-0.002,0.283 0.301,0.51 0.674,0.51Zm-5.427,9.837l-0.176,0c-0.71,0 -1.289,-0.557 -1.289,-1.243l0,-5.032c0,-0.688 0.579,-1.245 1.289,-1.245l0.176,0c0.713,0 1.291,0.557 1.291,1.245l0,5.032c0,0.686 -0.576,1.243 -1.291,1.243Z" style="fill:#eef4ff;fill-rule:nonzero;"/><rect x="0" y="0" width="22" height="22" style="fill:none;"/></g></svg>