<?xml version="1.0" encoding="utf-8"?>
<!-- Generator: Adobe Illustrator 22.1.0, SVG Export Plug-In . SVG Version: 6.00 Build 0)  -->
<svg version="1.1" id="图层_1" xmlns="http://www.w3.org/2000/svg" xmlns:xlink="http://www.w3.org/1999/xlink" x="0px" y="0px"
	 viewBox="0 0 40 35" style="enable-background:new 0 0 40 35;" xml:space="preserve">
<style type="text/css">
	.st0{fill:#50D2DC;}
	.st1{fill:#39466C;}
</style>
<title>icon_heart</title>
<desc>Created with Sketch.</desc>
<g id="Page-1">
	<g id="招聘" transform="translate(-1468.000000, -1235.000000)">
		<g id="分组-3" transform="translate(1416.000000, 1235.000000)">
			<g id="icon_heart" transform="translate(52.000000, 0.000000)">
				<path id="路径" class="st0" d="M8.9,21.9L20,33l11.1-11.1c-1.9-4.5-6.2-7.4-11.1-7.4S10.8,17.5,8.9,21.9z"/>
				<path id="形状" class="st1" d="M20,35c-0.5,0-1-0.2-1.4-0.6L3.3,19.2c-4.4-4.4-4.4-11.5,0-15.9s11.5-4.4,15.9,0L20,4l0.8-0.8
					c4.4-4.4,11.5-4.3,15.9,0s4.4,11.5,0,15.9L21.4,34.4C21,34.8,20.5,35,20,35z M11.3,3.9c-2.9,0-5.6,1.8-6.7,4.5s-0.5,5.8,1.6,7.9
					L20,30.2l13.9-13.8c2.7-2.8,2.7-7.3-0.1-10.1C31,3.4,26.5,3.4,23.6,6.1l-2.2,2.2c-0.8,0.8-2,0.8-2.8,0l-2.2-2.2
					C15,4.7,13.2,3.9,11.3,3.9z"/>
			</g>
		</g>
	</g>
</g>
</svg>
