<?xml version="1.0" encoding="utf-8"?>
<!-- Generator: Adobe Illustrator 22.1.0, SVG Export Plug-In . SVG Version: 6.00 Build 0)  -->
<svg version="1.1" id="图层_1" xmlns="http://www.w3.org/2000/svg" xmlns:xlink="http://www.w3.org/1999/xlink" x="0px" y="0px"
	 viewBox="0 0 40 35" style="enable-background:new 0 0 40 35;" xml:space="preserve">
<style type="text/css">
	.st0{fill:#50D2DC;}
	.st1{fill:#39466C;}
</style>
<title>icon_member</title>
<desc>Created with Sketch.</desc>
<g id="Page-1">
	<g id="招聘" transform="translate(-1118.000000, -1235.000000)">
		<g id="分组-14" transform="translate(1074.000000, 1235.000000)">
			<g id="icon_member" transform="translate(44.000000, 0.000000)">
				<polygon id="路径" class="st0" points="6.8,18.8 19.3,33 36.9,14.6 33.3,9.4 13.3,9.4 				"/>
				<path id="形状" class="st1" d="M39.6,12.3l-8-11.4C31.3,0.3,30.7,0,30,0H10C9.4,0,8.7,0.3,8.4,0.9l-8,11.4
					c-0.5,0.8-0.5,1.8,0.1,2.5l17.3,19.5c0.4,0.4,0.9,0.7,1.5,0.7c0.5,0,1.1-0.2,1.4-0.6l18.7-19.5C40.1,14.2,40.2,13.1,39.6,12.3z
					 M19.4,30L4.6,13.3L11,4H29l6.5,9.2L19.4,30z"/>
				<path id="路径_1_" class="st1" d="M25.9,12.8l-6.1,6.5l-5.6-6.4c-0.5-0.5-1.2-0.8-1.9-0.6c-0.7,0.1-1.3,0.7-1.5,1.3
					c-0.2,0.7-0.1,1.4,0.4,2l7.1,8.1c0.4,0.4,0.9,0.7,1.5,0.7c0.6,0,1.1-0.2,1.5-0.6l7.6-8.1c0.5-0.5,0.7-1.3,0.5-2
					c-0.2-0.7-0.8-1.2-1.5-1.4C27.1,12,26.3,12.2,25.9,12.8L25.9,12.8z"/>
			</g>
		</g>
	</g>
</g>
</svg>
