<?xml version="1.0" encoding="utf-8"?>
<!-- Generator: Adobe Illustrator 22.1.0, SVG Export Plug-In . SVG Version: 6.00 Build 0)  -->
<svg version="1.1" id="图层_1" xmlns="http://www.w3.org/2000/svg" xmlns:xlink="http://www.w3.org/1999/xlink" x="0px" y="0px"
	 viewBox="0 0 29 40" style="enable-background:new 0 0 29 40;" xml:space="preserve">
<style type="text/css">
	.st0{fill:#5AD6E3;}
	.st1{fill:#39466C;}
</style>
<title>icon_trophy</title>
<desc>Created with Sketch.</desc>
<g id="Page-1">
	<g id="招聘" transform="translate(-775.000000, -1230.000000)">
		<g id="icon_trophy" transform="translate(775.000000, 1230.000000)">
			<path id="路径" class="st0" d="M2,14c0,7,5.6,12.7,12.5,12.7S27,21,27,14v-2H2V14z"/>
			<path id="形状" class="st1" d="M27,0H2C0.9,0,0,0.9,0,2v12.7C0,22,5.4,28.2,12.5,29.2V36H7.3c-1.1,0-2,0.9-2,2s0.9,2,2,2h14.5
				c1.1,0,2-0.9,2-2s-0.9-2-2-2h-5.3v-6.8C23.6,28.2,29,22,29,14.7V2C29,0.9,28.1,0,27,0z M25,14.7c0,5.9-4.7,10.7-10.5,10.7
				S4,20.6,4,14.7V4H25V14.7z"/>
			<path id="路径_1_" class="st1" d="M10.9,15.2l-0.8,4.4c0,0.1,0,0.2,0.1,0.3c0.1,0.1,0.2,0.1,0.3,0.1l3.9-2.1l3.9,2.1
				c0.1,0.1,0.2,0,0.3,0c0.1-0.1,0.2-0.2,0.1-0.3l-0.8-4.4l3.2-3.1c0.1-0.1,0.2-0.3,0.1-0.4c-0.1-0.1-0.2-0.2-0.4-0.2l-4.4-0.6l-2-4
				c-0.1-0.1-0.2-0.2-0.3-0.2s-0.2,0.1-0.3,0.2l-2,4l-4.3,0.6c-0.1,0-0.2,0.1-0.3,0.2c0,0.1,0,0.2,0.1,0.3L10.9,15.2z"/>
		</g>
	</g>
</g>
</svg>
