<?xml version="1.0" encoding="utf-8"?>
<!-- Generator: Adobe Illustrator 22.1.0, SVG Export Plug-In . SVG Version: 6.00 Build 0)  -->
<svg version="1.1" id="图层_1" xmlns="http://www.w3.org/2000/svg" xmlns:xlink="http://www.w3.org/1999/xlink" x="0px" y="0px"
	 viewBox="0 0 40 40" style="enable-background:new 0 0 40 40;" xml:space="preserve">
<style type="text/css">
	.st0{fill:#50D2DC;}
	.st1{fill:#39466C;}
</style>
<title>icon_money</title>
<desc>Created with Sketch.</desc>
<g id="Page-1">
	<g id="招聘" transform="translate(-411.000000, -1230.000000)">
		<g id="分组-12" transform="translate(359.000000, 1230.000000)">
			<g id="icon_money" transform="translate(52.000000, 0.000000)">
				<path id="路径" class="st0" d="M9.3,20c0,5.9,4.8,10.7,10.7,10.7S30.7,25.9,30.7,20S25.9,9.3,20,9.3S9.3,14.1,9.3,20z"/>
				<path id="形状" class="st1" d="M20,0C9,0,0,9,0,20s9,20,20,20s20-9,20-20c0-5.3-2.1-10.4-5.9-14.1S25.3,0,20,0z M20,36
					c-8.8,0-16-7.2-16-16S11.2,4,20,4s16,7.2,16,16c0,4.2-1.7,8.3-4.7,11.3C28.3,34.3,24.2,36,20,36z"/>
				<path id="路径_1_" class="st1" d="M24.7,20c1.1,0,2-0.9,2-2s-0.9-2-2-2h-1.4l2.9-3.4c0.6-0.5,0.8-1.3,0.5-2.1
					c-0.2-0.7-0.9-1.3-1.6-1.4C24.3,9,23.6,9.4,23.1,10L20,13.7L16.9,10c-0.4-0.6-1.2-0.9-1.9-0.8c-0.7,0.1-1.3,0.6-1.6,1.3
					c-0.2,0.7-0.1,1.5,0.5,2l2.9,3.4h-1.4c-1.1,0-2,0.9-2,2s0.9,2,2,2H18v1.3h-2.7c-1.1,0-2,0.9-2,2c0,1.1,0.9,2,2,2H18v3.3
					c0,1.1,0.9,2,2,2s2-0.9,2-2v-3.3h2.7c1.1,0,2-0.9,2-2c0-1.1-0.9-2-2-2H22V20H24.7z"/>
			</g>
		</g>
	</g>
</g>
</svg>
